<svg xmlns="http://www.w3.org/2000/svg" width="1280" height="970"><path fill="#306CE5" d="M614 0h42v3l3.88.94c2.22.54 4.07 1.03 6.12 2.06v2c.92.16.92.16 1.86.33l2.45.48c.8.15 1.6.3 2.43.46 2.55.82 3.42 1.84 5.26 3.73 2.13.89 2.13.89 4.44 1.5 3.46 1.07 5.69 2.28 8.56 4.5 2.04.83 4.1 1.56 6.2 2.25C699 22 699 22 701 24c2.31.81 4.65 1.46 7 2.12l2 .88 1 3c1.99.2 3.97.39 5.96.59C719 31 719 31 722 33v2c.6.11 1.21.22 1.83.33 4.55.91 7.52 1.73 11.17 4.67 1.98.83 3.97 1.55 6 2.25 2.09.78 4.02 1.72 6 2.75 3.76 1.91 7.49 3.78 11.38 5.44 5.53 2.38 10.86 5.16 16.24 7.89 4.74 2.39 9.47 4.64 14.38 6.67v2c.6.11 1.21.22 1.83.33 4.55.91 7.52 1.73 11.17 4.67 2.04.83 4.1 1.56 6.2 2.25C810 75 810 75 812 77c2.31.81 4.65 1.46 7 2.12l2 .88 1 3 10 2 1 3c2.01.7 2.01.7 4.38 1 3.7.58 5.05 1.35 7.62 4 2.09.89 2.09.89 4.38 1.5 3.58 1.11 6.43 2.49 9.62 4.5 2.31 1.07 4.65 2.03 7 3v2c.69.11 1.37.22 2.08.33a501.63 501.63 0 0 0 5.44.94c2.74.81 3.55 1.71 5.48 3.73 2.13.89 2.13.89 4.44 1.5 3.46 1.07 5.69 2.28 8.56 4.5 2.04.83 4.1 1.56 6.2 2.25 1.8.75 1.8.75 3.8 2.75 1.2.41 2.39.83 3.62 1.25 8.07 2.93 14.4 8.85 19.38 15.75v2l3 1c1.1 2.18 1.1 2.18 2.06 4.88 1.12 3.08 2.1 5.36 3.94 8.12.23 4.17-.02 7.94-1 12h2c3.33 8.37 5.48 15.91 6.54 24.9.49 3.29 1.43 5.88 2.74 8.91 1 3.04 1.32 6.08 1.72 9.25.49 3.88.93 6.78 2.5 10.38 2.04 4.84 2.36 9.65 2.88 14.84.47 3.75.47 3.75 2.09 7.1 2.15 5.08 2.65 10.15 3.35 15.59.72 5.16 2.09 9.23 4.18 14.03.63 3.76 1 7.49 1.38 11.28.66 3.97 2.03 7.04 3.62 10.72.66 2.77 1.08 5.56 1.5 8.38 1.07 6.73 1.07 6.73 3.06 13.24 1.48 3.93 1.96 7.87 2.44 12 .48 4.05.89 7.13 2.5 10.88 2.07 4.84 2.36 9.69 2.88 14.88.44 3.62.44 3.62 2.12 6.62 1.78 3.55 2.11 6.5 2.5 10.44.4 4.04.84 7.2 2.47 10.94 2.15 5.09 2.65 10.15 3.35 15.59.72 5.16 2.11 9.22 4.18 14.03.55 2.69.82 5.39 1.06 8.12.44 4.63 1.18 8.56 2.94 12.88.27 2.72.27 2.72.25 5.5.01.92.01 1.84.02 2.78-.29 2.92-1.15 5.02-2.27 7.72-.33 1.83-.62 3.66-.88 5.5-.78 4.59-1.82 7.1-5.12 10.5l-1.38 2.31c-5.95 9.86-5.95 9.86-9.62 11.69-.74 1.24-.74 1.24-1.5 2.5-1.5 2.5-1.5 2.5-3.5 3.5-.5.85-.99 1.69-1.5 2.56-.74 1.21-.74 1.21-1.5 2.44h-2c-.26.73-.52 1.45-.78 2.2-1.27 2.92-2.76 5.11-4.72 7.61-.61.79-1.22 1.58-1.84 2.4-.55.59-1.1 1.18-1.66 1.79h-2c-.25.78-.5 1.57-.75 2.38-1.46 3.06-2.33 3.21-5.25 4.62-.16.66-.33 1.32-.5 2-.16.66-.33 1.32-.5 2l-2 .94-2 1.06c-.81 2.56-.81 2.56-1 5h-2v2h-2c-.36 1.08-.36 1.08-.72 2.18-1.48 3.26-3.32 5.3-5.78 7.88-2.75 2.9-4.77 5.36-6.5 8.94-.99 1.01-1.99 2.01-3 3-2.04 2.74-4 5.52-5.96 8.31-2.44 3.22-5.17 5.87-8.1 8.63-2.06 2.19-3.41 4.48-4.94 7.06l-2 1c-1.01 1.66-2.01 3.33-3 5-2.78 3.92-5.57 7.63-9 11-2.33 2.73-4.61 5.45-6.69 8.38-.65.8-.65.8-1.31 1.62h-2c-.11.82-.11.82-.23 1.66-1.06 3.21-2.9 5.21-5.08 7.78-.78.92-1.56 1.85-2.37 2.81-1.15 1.36-1.15 1.36-2.32 2.75-.72.94-1.43 1.88-2.17 2.85-.9 1.06-.9 1.06-1.83 2.15h-2c-.27.8-.54 1.61-.81 2.44L864 619l-3 1c-.31.93-.62 1.86-.94 2.81-1.19 3.57-2.39 4.62-5.06 7.19-1.54 1.79-3.06 3.61-4.56 5.44-.77.92-1.53 1.85-2.32 2.81-2.13 2.65-2.13 2.65-3.65 5.35-1.57 2.56-3.32 4.32-5.47 6.4-3.79 4.5-7.43 9.12-10.81 13.94-1.67 2.34-3.17 4.08-5.19 6.06-2.4 2.82-4.75 5.68-7.04 8.59-11.56 14.5-11.56 14.5-18.46 16.35l-2.5.06-1 3c-7.59 1.86-14.79 2.28-22.58 2.25-1.24.01-2.47.01-3.74.01-3.39.01-6.79.01-10.19 0-3.67 0-7.34 0-11.01.01-7.18.01-14.37.01-21.55 0h-25.11c-15.83.01-31.66 0-47.5-.01-13.58-.01-27.16-.01-40.74 0-15.78.01-31.57.02-47.35.01h-7.56c-5.83-.01-11.66 0-17.49 0-7.11.01-14.21.01-21.32 0-3.62-.01-7.25-.01-10.87 0-3.93 0-7.86-.01-11.79-.02-1.14.01-2.29.01-3.46.02-7.53-.04-13.74-.27-19.74-5.27l-2.3-1.33c-7.44-4.61-16.52-11.94-18.7-20.67l-2-1-2-1c-.33-1.33-.67-2.67-1-4-.57-.24-1.13-.48-1.71-.73-3.29-1.82-5.16-4.62-7.35-7.58-.65-.86-.65-.86-1.32-1.73-2.42-3.21-4.56-6.49-6.62-9.96-1.31-1.36-2.65-2.69-4-4-1.1-1.2-2.18-2.41-3.25-3.62-.52-.6-1.04-1.19-1.58-1.79C419 636 419 636 419 634l-3-1c-1.54-1.71-1.54-1.71-3.06-3.81-.51-.69-1.02-1.38-1.54-2.08-1.4-2.11-1.4-2.11-2.47-4.25-1.23-2.46-2.96-3.95-4.93-5.86-1.22-1.45-2.44-2.89-3.64-4.36-1.95-2.35-3.99-4.64-6.03-6.93-1.41-1.81-2.32-3.65-3.33-5.71-1.94-2.07-3.99-3.99-6.06-5.94-1.94-2.06-1.94-2.06-3.29-4.35-1.79-2.95-3.82-5.49-6.03-8.15-1.18-1.43-1.18-1.43-2.39-2.9-1.3-1.55-2.6-3.08-3.93-4.6-3.3-3.78-3.3-3.78-3.3-7.06-.64-.25-1.28-.5-1.94-.75-2.6-1.58-2.35-2.42-3.06-5.25-.57-.24-1.13-.48-1.71-.73-3.3-1.83-5.16-4.66-7.35-7.65-.65-.86-.65-.86-1.32-1.74-1.21-1.62-2.42-3.25-3.62-4.88-.9-1.13-.9-1.13-1.81-2.29C344 542 344 542 344 540c-.64-.27-1.28-.54-1.94-.81C340 538 340 538 339 535l-2.56-2.56L334 530v-2l-3-1c-1.5-1.67-1.5-1.67-3-3.75-.52-.72-1.04-1.44-1.58-2.18-1.1-1.61-2.12-3.27-3.11-4.95-1.28-2.4-1.28-2.4-4.31-4.12-.67-1.33-1.33-2.67-2-4l-3-2c-.67-1.33-1.33-2.67-2-4l-1.75-1.75c-2.57-2.57-4.61-5.34-6.76-8.25-1.6-2.15-3.29-4.21-5.02-6.25-3.54-4.21-7-8.48-10.47-12.75-.69-.84-1.39-1.67-2.1-2.54-.63-.77-1.25-1.54-1.9-2.34-.84-1.01-.84-1.01-1.69-2.05-1.49-2.36-1.93-4.33-2.31-7.07l-3-1c-1.36-2.8-1.99-5.87-2.75-8.88l-.67-2.62c-2.26-9.36-1.22-16.34 1.42-25.5.33-2.33.64-4.66.94-7 .52-3.88.99-6.84 2.56-10.44 2.05-4.87 2.36-9.72 2.88-14.94.62-3.62.62-3.62 2.09-6.5 2-4.08 2.46-7.96 3.03-12.43.75-5.78 1.84-11.01 3.79-16.5 1.12-3.44 1.69-6.94 2.27-10.5 1.18-7.19 1.18-7.19 2.47-9.68 1.77-3.68 1.74-7.95 2.09-11.99.36-3.43.77-5.8 2.35-8.92 2.06-4.17 2.5-8.21 3.09-12.79l.69-5.07c.1-.74.2-1.49.3-2.25C304 290 304 290 306 287c.5-1.99.5-1.99.75-4.17.11-.81.23-1.62.35-2.46.22-1.68.44-3.37.67-5.06.68-4.75 1.72-8.87 3.52-13.32 1.25-3.5 1.73-7.13 2.27-10.8 1.17-7.79 1.17-7.79 3.44-11.19.51-2.17.51-2.17.78-4.56.12-.88.24-1.76.36-2.67.12-.91.24-1.83.36-2.77.23-1.81.47-3.63.72-5.44.1-.8.2-1.6.31-2.43C320 220 320 220 322 217c.5-2 .5-2 .75-4.2.11-.82.23-1.64.35-2.48.22-1.7.45-3.4.67-5.1.74-5.22 2.11-9.36 4.23-14.22.42-2.49.75-4.99 1-7.5.54-5.46 1.85-9.48 4-14.5.83-3.58 1.3-7.22 1.82-10.86.68-4.38 1.63-7.41 4.18-11.14.45-1.09.91-2.19 1.38-3.31 1.72-4.14 3.81-8.18 6.62-11.69l3-1 1-5 1 2c.69-.45.69-.45 1.4-.92 7.52-4.83 15.39-8.56 23.6-12.08 4.37-2.12 8.69-4.32 13-6.56 3.47-1.67 7.02-3.03 10.63-4.38 2.42-.98 2.42-.98 4.44-2.64 2.79-2.05 5.54-2.09 8.93-2.42l1-3c2.11-1.06 2.11-1.06 4.75-2 3.7-1.38 6.88-2.94 10.25-5 1.52-.5 1.52-.5 3.06-1 2.9-.81 2.9-.81 4.82-2.44 2.45-1.8 4.98-2.67 7.84-3.68 4.24-1.64 8.24-3.8 12.28-5.88 2.84-1.44 5.6-2.84 8.56-4 2.49-.95 2.49-.95 4.82-2.44 4.2-2.5 8.73-4.19 13.24-6.06 3.27-1.36 3.27-1.36 5.69-2.94 3.3-1.91 6.72-3.18 10.29-4.5 2.46-1.09 4.26-2.45 6.4-4.06 2.07-.88 2.07-.88 4.12-1.56 2.72-.91 3.8-1.36 5.88-3.44 2.16-.63 2.16-.63 4.62-1.12 1.23-.26 1.23-.26 2.48-.51.63-.12 1.25-.25 1.9-.37v-2c.66-.25 1.33-.51 2.01-.77 4.59-1.79 8.8-3.62 12.99-6.23 2.33-1.02 4.66-2.01 7-3 1.03-.52 2.06-1.03 3.12-1.56C554 30 554 30 556.56 29c2.52-.95 2.52-.95 4.88-2.56 2.88-1.62 5.3-2.06 8.56-2.44v-2c.68-.25 1.35-.51 2.05-.77.89-.34 1.78-.69 2.7-1.04 1.32-.51 1.32-.51 2.67-1.02 2.52-1.14 4.39-2.5 6.58-4.17 1.93-.84 1.93-.84 3.88-1.5 3.52-1.25 6.78-2.79 10.12-4.5.85-.33 1.69-.66 2.56-1 2.52-.95 2.52-.95 4.88-2.56 2.88-1.62 5.3-2.06 8.56-2.44V0Z"/><path fill="#F9FCFE" d="M640 91c3.98 2.08 6.39 5.19 8.28 9.29 2.23 8.38 1.12 17.94-.28 26.4-1.01 6.28-1.29 12.46-1.38 18.81-.02.94-.05 1.89-.07 2.86-.02 5.88.8 8.85 4.45 13.64v4c1 .18 1 .18 2.02.37 1.95.35 3.91.71 5.86 1.07 1.91.34 3.82.68 5.74 1 18.45 3.14 36.59 8.24 53.38 16.56 1.15.55 2.31 1.09 3.5 1.66 7.98 3.84 15.29 8.2 22.5 13.34.98.69 1.95 1.38 2.96 2.09 6.83 4.96 13.01 10.41 19.13 16.21.96.89 1.92 1.78 2.91 2.7.81.78 1.63 1.56 2.46 2.37 3.37 2.17 5.22 1.96 9.16 1.44 1.69-.17 1.69-.17 3.42-.35 11.19-3.06 20.96-16.32 28.78-24.47 1.54-1.6 3.08-3.18 4.63-4.76l2.73-2.83c5.29-4.5 10.61-6 17.52-5.74 3.52.52 5.01 1.64 7.3 4.34 2.88 4.46 5.01 8.61 4 14-4.12 9.04-11.63 14.06-20.06 18.75-5.8 3.31-11.39 6.79-16.82 10.69-.57.41-1.15.82-1.74 1.25-5.78 4.2-5.78 4.2-8.94 10.37-.91 2.74-1.35 3.85-3.44 5.94.24 5.38 1.73 8.75 4.69 13.19 18.52 28.79 26.41 64.29 26.5 98.25 0 .93 0 1.87.01 2.83-.03 5-.47 9.61-1.39 14.54-.39 3.75-.13 4.78 2.22 7.8 11.35 10.01 25.65 11.03 40.22 11.73 16.43.79 16.43.79 21.62 5.27 4.07 4.55 6.78 8.92 6.65 15.23-1.03 4.3-4.25 7.33-7.52 10.16-4.29 2.6-8.1 2.59-13 2-6.33-1.63-12.36-4.13-18.44-6.5-9.25-3.59-18.56-7.18-28.56-7.5l-3 2c-1.48.15-2.96.27-4.44.38-2.45.41-2.45.41-4.56 1.62-1.48 2.69-2.15 5.32-2.95 8.29-10.29 36.24-41.44 72.84-73.05 92.71-1.29.67-2.58 1.33-3.88 1.99-3.27 1.66-3.27 1.66-4.02 4.46-.03.84-.07 1.68-.1 2.55-.13.77-.25 1.54-.38 2.33-1.01 13.6 8.86 25.66 16.14 36.36 10.46 15.38 10.46 15.38 9.24 23.31-2.04 5.68-5.6 9.3-11 12-6.2.3-10.34-1.38-15.18-5.14-5.02-5.13-6.86-10.55-8.7-17.3-6.39-22.29-6.39-22.29-22.12-38.56v-2c-.8.31-1.6.63-2.43.95-8.96 3.37-17.88 5.76-27.27 7.6-1.48.29-2.95.59-4.42.91-11.17 2.42-22.25 2.83-33.63 2.85-.69.01-1.39.01-2.1.01-13.9.04-27.33-1.7-40.9-4.7-1.41-.29-1.41-.29-2.84-.59-5.87-1.28-11.34-3-16.91-5.25-2.69-.84-4.7-1.09-7.5-.78a96.19 96.19 0 0 0-4 5c-.97.54-1.94 1.07-2.94 1.62-9.41 7.3-12.93 26.25-16.06 37.44-2.12 6.99-5.22 12.41-11.44 16.44-4.09 1.72-6.17 2.26-10.56 1.5-4.51-2.37-8.16-4.74-11-9-2.34-11.72 4.61-21.5 10.77-30.82 1.27-1.9 2.56-3.79 3.85-5.68 5.56-8.12 9.56-14.37 9.76-24.38.03-.7.07-1.41.11-2.14.06-3.85-.27-5.7-2.67-8.76-2.7-2.13-5.4-4.03-8.32-5.84-7.01-4.58-13.24-9.85-19.5-15.38-.76-.66-.76-.66-1.53-1.34-5.95-5.21-11.48-10.52-16.47-16.66-.82-.98-1.64-1.96-2.48-2.98-12.98-15.8-24.18-34.24-30.73-53.69-.84-2.48-1.8-4.9-2.79-7.33-1.09-.12-2.19-.25-3.31-.38C442 422 442 422 439 420c-7.35-.77-13.52 1.43-20.44 3.75-1.08.35-2.16.7-3.27 1.05-5.61 1.84-11.04 3.84-16.37 6.38-5.7 2.44-11.82 2.53-17.92 1.82-4.49-1.82-7.32-3.98-10-8-.84-5.01-1.14-9.92 1.36-14.46 4.16-4.94 8.56-8.03 15.05-9.11 1.84-.13 1.84-.13 3.72-.27.67-.06 1.34-.11 2.03-.17 2.13-.18 4.27-.33 6.4-.49 19.57-.69 19.57-.69 35.85-9.98C437 389 437 389 440 388l-.06-3.75c-.71-45.68-.71-45.68 4.06-65.25.29-1.33.58-2.66.88-3.98 4.78-19.9 12.61-39.97 24.19-56.91 1.22-2.78.87-4.26-.07-7.11l-2-2c-.66-1.64-1.33-3.29-1.93-4.95-3.29-6.28-8.07-9.73-13.95-13.36-.74-.47-1.48-.94-2.24-1.43-3.67-2.31-7.37-4.57-11.12-6.76-.66-.39-1.33-.78-2.02-1.19-1.24-.72-2.49-1.44-3.74-2.14-4.44-2.57-9.95-6.02-11.65-11.11-1.05-6.18-.84-10.76 2.65-16.06 3.65-3.38 6.24-4.86 11.25-5.25 8.94.6 14.64 5.72 20.46 12.13 1.13 1.31 2.26 2.63 3.38 3.94 11.6 13.72 11.6 13.72 27.29 20.74 2.58.22 4.58.43 7.03 1.35 2.89.39 2.89.39 5.47-2.38 1.09-1.19 2.17-2.39 3.24-3.59 16.8-17.75 38.3-30.01 60.88-38.94.99-.39.99-.39 2.01-.8 16.74-6.51 34.11-10.51 51.99-12.2.37-1.61.37-1.61.75-3.25C618 160 618 160 620.1 157.99c2.75-2.87 2.4-4.88 2.34-8.8-.02-1.03-.02-1.03-.03-2.07-.22-7.35-1.32-14.6-2.33-21.88-2.65-19.26-2.65-19.26 1.92-28.24 5.25-6.17 10.21-6.86 18-6Z"/><path fill="#000002" d="M318.125 735.188c3.69 1.6 5.34 4.19 6.88 7.81.27 2.38.27 2.38.31 5.05l.06 3.03c.02 1.07.03 2.15.04 3.25l.06 3.35c.06 3.52.1 7.05.15 10.57l.12 7.17c.09 5.86.18 11.72.26 17.58 3 1.34 3 1.34 6 0 4.39-.2 8.79-.18 13.19-.18 2.17 0 4.33-.02 6.49-.04 1.39-.01 2.77-.01 4.15-.01 1.25 0 2.51-.01 3.8-.01 3.27.24 5.43.85 8.37 2.24.75.31 1.5.62 2.28.93 4.46 1.9 8.07 3.8 11.72 7.07.63.53 1.27 1.06 1.93 1.6 7.27 6.08 10.98 12.99 15.07 21.4.35.62.71 1.23 1.08 1.86 1.3 3.04 1.54 5.99 1.92 9.27.51 4.4 1.13 8.69 2.18 13 1.94 9.48-.28 19.08-2.06 28.44-.16.86-.32 1.73-.49 2.63-.87 4.33-1.61 7.44-4.63 10.8-.46 1.1-.91 2.19-1.38 3.31-4.77 11.48-15.18 19.63-26.44 24.38-1.05.43-2.1.87-3.18 1.31-1 .66-1.99 1.32-3 2-14.52 4.18-30.04 3.03-44.88 1.94l-2.64-.18c-21.38-1.52-21.38-1.52-29.05-7.88-2.7-3.53-2.56-5.92-2.58-10.33v-2.04c-.01-2.25-.01-4.51-.02-6.77 0-1.61-.01-3.23-.01-4.84l-.03-13.19c0-2.74 0-5.49-.01-8.23-.01-8.59-.02-17.18-.02-25.77-.01-9.92-.03-19.83-.05-29.75-.03-7.66-.04-15.33-.04-22.99 0-4.58 0-9.15-.02-13.73-.02-4.31-.02-8.62-.01-12.93 0-1.58-.01-3.15-.02-4.73-.01-2.16 0-4.32.01-6.49 0-1.2-.01-2.41-.01-3.65.45-4.11 1.49-6.77 3.38-10.44 1.98-1.05 1.98-1.05 4.31-1.31.87-.12 1.75-.24 2.65-.36 1-.11 2-.22 3.04-.33 2.43-.32 4.87-.66 7.31-1 1.15-.14 2.3-.29 3.49-.43 3.53-.63 6.79-2.69 10.32-2.38Zm16.47 91.86-2.41.14c-1.09.05-1.09.05-2.2.11-3 1.07-3.59 2.91-4.98 5.7-.45 2.71-.45 2.71-.39 5.59l-.03 3.31c0 1.17.01 2.35.02 3.55-.01 1.21-.01 2.42-.01 3.67 0 2.55 0 5.1.01 7.65.02 3.92 0 7.83-.02 11.75.01 2.48.01 4.95.02 7.43-.01 1.18-.02 2.36-.02 3.57l.03 3.29v2.9c.13.75.26 1.51.39 2.29 6.05 4.04 15.39 2.41 22.43 1.5 5.64-1.26 8.28-5.02 11.57-9.5.65-.66 1.31-1.32 2-2 .63-2.53 1.17-4.99 1.62-7.56.13-.73.26-1.46.39-2.21.88-5.17 1.55-9.99.99-15.23-.11-1.25-.22-2.49-.33-3.78-1.03-8.8-2.89-13.9-10.01-19.71-5.91-3.34-12.51-2.6-19.07-2.46ZM47.188 735.688c1.29-.03 1.29-.03 2.61-.05.72.12 1.45.24 2.2.36 2.58 3.87 2.31 7.11 2.32 11.6l.03 2.67c.03 2.9.05 5.81.07 8.71.02 2.02.03 4.03.06 6.04.05 5.31.09 10.61.12 15.91.04 5.41.09 10.82.14 16.23.1 10.61.19 21.23.26 31.84h2c1.64-1.62 1.64-1.62 3.31-3.69 7.47-8.75 7.47-8.75 10.88-10.31 2.58-1.42 2.74-3.29 3.81-6 2.63-2.97 4.22-4.74 8-6 .25-.74.5-1.48.75-2.25 1.79-3.93 4.47-5.77 8.25-7.75 2.94-.46 5.26-.66 8.17-.59h2.28c1.59 0 3.17.02 4.76.05 2.42.04 4.83.04 7.25.03 1.55.02 3.1.03 4.64.04h2.18c4.4.11 7.17.87 10.72 3.47-.4 1.47-.82 2.92-1.25 4.38l-.7 2.46c-1.29 2.66-2.4 3.01-5.05 4.16-1.05 1.64-2.05 3.31-3 5-1.5 1.63-1.5 1.63-3 3-.51.56-1.03 1.12-1.56 1.69-1.44 1.31-1.44 1.31-3.44 1.31-.1.64-.2 1.28-.31 1.94-.23.68-.45 1.36-.69 2.06-1.48.5-1.48.5-3 1-1.22 2.51-1.22 2.51-2 5h-2v2h-2c-.26.58-.53 1.16-.8 1.76-3.22 6.02-8.5 10.76-13.81 14.92-1.67 1.38-1.67 1.38-2.39 4.32 1.29 2.23 1.29 2.23 3.19 4.44.61.76 1.22 1.52 1.86 2.31 1.9 2.19 3.89 4.21 5.95 6.25 1.69 1.99 3.35 3.99 5 6 .83.99 1.65 1.98 2.5 3 .83.99 1.65 1.98 2.5 3 .85.99 1.69 1.98 2.57 3 2.36 2.91 4.38 5.87 6.43 9 1.14 1.63 2.29 3.25 3.44 4.88 8.32 11.9 8.32 11.9 9.13 16 .21 1.05.21 1.05.43 2.12 1.97 1.36 1.97 1.36 4 2 .36 6.38.36 6.38-.98 8.7-3.24 2.09-6.72 1.77-10.45 1.77-.82.01-1.65.02-2.5.02-1.75.02-3.5.02-5.25.01-2.68 0-5.35.04-8.02.09-1.7 0-3.4.01-5.1.01-.8.01-1.59.03-2.41.05-4.24-.06-5.8-.25-9.19-3.03-.7-.86-1.39-1.73-2.1-2.62-.72-.82-1.44-1.65-2.19-2.5-1.78-2.46-2.7-4.69-3.81-7.5l-3-3c-1.03-1.43-2.03-2.89-3-4.37-.52-.8-1.04-1.6-1.58-2.42-2.04-3.18-3.97-6.4-5.79-9.71-1.62-2.68-1.62-2.68-4.32-5.19l-2.31-2.31v-2h-2c-3-3.46-3-3.46-3-6h-2c-.01.57-.01 1.14-.02 1.73-.09 5.92-.19 11.84-.29 17.76-.04 2.21-.08 4.42-.11 6.63-.04 3.18-.1 6.35-.16 9.53l-.04 3-.06 2.79c-.01.81-.03 1.62-.04 2.46-.28 2.1-.28 2.1-2.28 5.1-5.22 1.74-10.83 1.23-16.3 1.24-2.19.01-4.37.04-6.56.07-1.39.01-2.78.02-4.17.02-1.89.01-1.89.01-3.83.03-3.14-.36-3.14-.36-4.81-1.44-2.03-2.93-1.71-5.4-1.71-8.93 0-.72-.01-1.44-.01-2.18-.01-2.41-.01-4.83 0-7.24 0-1.73-.01-3.46-.01-5.18-.02-4.7-.01-9.4 0-14.1.01-4.91 0-9.82 0-14.74-.01-8.25 0-16.5.01-24.75.02-9.54.01-19.09 0-28.63-.02-8.19-.02-16.38-.01-24.56 0-4.9 0-9.79-.01-14.68-.01-4.6 0-9.2.02-13.8 0-1.69 0-3.38-.01-5.07 0-2.31.01-4.61.02-6.92v-3.91c.41-3.42.96-4.82 3.38-7.23 2.01-.6 2.01-.6 4.28-.76.82-.06 1.65-.13 2.5-.2.85-.06 1.71-.11 2.6-.16 6.82-.49 13.15-3.16 19.81-3.19ZM882 797c.91.43 1.82.87 2.75 1.31 9.35 4.86 16.46 11.75 20.25 21.69.5.72.99 1.44 1.5 2.19 1.84 3.44 2.36 6.67 2.97 10.51.45 2.56.45 2.56 2.53 5.3 1.42 5.76 1.26 11.73 1.31 17.62.05 1.56.05 1.56.09 3.15l.03 3.02c.01.9.02 1.81.04 2.74-.63 3.29-1.86 4.43-4.47 6.47-3.52 1.23-6.95 1.13-10.65 1.13h-2c-2.17.01-4.34.01-6.51 0-1.51 0-3.02 0-4.54.01-3.16 0-6.32 0-9.49-.01-4.06-.01-8.11 0-12.17 0-3.12.01-6.24.01-9.36 0-1.5 0-3 0-4.49.01-2.09 0-4.18-.01-6.27-.01h-3.6C837 872 837 872 834 871v9l4 2 2.44 2.5c9.89 8.36 31.31 4.69 43.47 3.91 3.23-.43 6.02-1.34 9.09-2.41 5.31-.52 5.31-.52 7.62 1.23 1.71 2.2 1.96 3.72 2.33 6.48.19 1.37.19 1.37.38 2.77.18 1.44.18 1.44.36 2.9.19 1.41.19 1.41.39 2.86 1.16 8.75 1.16 8.75.92 12.76-5.03 6.34-10.96 7.59-18.63 8.52-.7.07-1.39.15-2.1.22-1.59.18-3.17.38-4.75.59-11.66 1.52-22.74 1.85-34.46.55-1.08-.12-2.16-.24-3.28-.36-6.42-.83-11.17-2.3-16.78-5.52-1.15-.58-2.31-1.15-3.5-1.75-.83-.41-1.65-.83-2.5-1.25v-2c-1.24-.28-1.24-.28-2.5-.56-10.02-4.12-14.85-12.84-19.35-22.17-1.19-2.45-1.19-2.45-3.15-5.27-.5-1.97-.5-1.97-.85-4.21-.13-.83-.26-1.65-.39-2.5-1.83-12.77-2.16-24.35-.51-37.17.11-.89.22-1.78.33-2.7.82-5.71 2.28-9.58 5.42-14.42 1.01-1.99 2.02-3.99 3-6h2c.08-1.06.08-1.06.17-2.14 1.1-3.8 3.36-5.94 6.14-8.61.49-.49.98-.99 1.48-1.5 2.67-2.63 4.57-3.98 8.21-4.75l1-3c1.96-1.1 1.96-1.1 4.38-2.06 2.84-1.16 5.04-2.22 7.62-3.94 2.52-.5 4.95-.89 7.5-1.19 1.11-.13 1.11-.13 2.25-.26 12.14-1.22 30.26-2.42 40.25 5.45Zm-46.12 33.19c-2.69 4.03-3 8.02-2.88 12.81l1 2c5.39.02 10.79.04 16.18.05l5.51.03c2.63.01 5.27.01 7.9.02 1.24.01 1.24.01 2.5.01 1.97 0 3.94-.05 5.91-.11 1.42-1.21 1.42-1.21 1.31-4.75-.05-4.27-1.25-6.19-4.31-9.25-.58-.68-1.15-1.36-1.75-2.06-4.07-3.51-8.26-5.6-13.56-6.5-6.66 1.01-12.33 3.91-17.81 7.75ZM1093 791c1.29.08 2.57.16 3.89.24 15.17 1.2 27.16 7.08 37.61 18.32 2.46 3.01 3.31 5.5 3.5 9.44 1.48.5 1.48.5 3 1 1.97 3.7 2.65 7.73 3.44 11.82.47 2.19.47 2.19 1.56 4.02 2.85 6.15 2.25 13.69 2.31 20.35.05 1.47.05 1.47.09 2.98.06 7.15.06 7.15-2.17 10.44-4.17 2.6-8.03 2.52-12.88 2.52h-2c-2.17.01-4.34.01-6.51 0-1.51 0-3.02 0-4.54.01-3.16 0-6.32 0-9.49-.01-4.06-.01-8.11 0-12.17 0-3.12.01-6.24.01-9.36 0-1.5 0-3 0-4.49.01-2.09 0-4.18-.01-6.27-.01h-3.6C1072 872 1072 872 1069 871v9l4 2 2.44 2.5c10.12 8.56 31.75 4.65 44.35 3.91 3.09-.39 5.38-1.18 8.21-2.41 3.12-.38 3.12-.38 6 0 3.46 3.31 3.65 7.14 4.06 11.69.15 1.43.31 2.86.47 4.29.11 1.03.11 1.03.23 2.09.46 3.72 1.33 7.3 2.24 10.93-8.69 7.6-17.2 9-28.31 9.94-.72.06-1.44.13-2.19.19-10.32.9-20.24.95-30.56-.19-1.09-.12-2.19-.24-3.31-.37-6.26-.85-11.19-2.39-16.63-5.57-1.15-.58-2.31-1.15-3.5-1.75-.83-.41-1.65-.83-2.5-1.25v-2c-1.24-.28-1.24-.28-2.5-.56-11.47-4.71-16.56-15.81-21.5-26.44-.36-.74-.71-1.48-1.08-2.24-2.7-8.11-2.1-17.07-2.11-25.51l-.03-3.59c-.04-21.38-.04-21.38 5.22-27.66.83-2.08 1.49-4.16 2.16-6.29.27-.57.55-1.13.84-1.71l3-1c.05-.71.11-1.41.16-2.14 1.12-3.81 3.41-5.95 6.22-8.61l1.5-1.5c2.35-2.29 3.96-3.7 7.12-4.75.58-.62 1.15-1.24 1.75-1.88 2.81-2.65 5.68-3.69 9.25-5.12l3-2c2.73-.47 5.38-.84 8.12-1.12l2.35-.26c5.22-.54 10.29-1 15.53-.62Zm-22.12 40.12c-2.89 4.43-3.07 7.66-2.88 12.88 1.19 1.42 1.19 1.42 4.6 1.11 1.6 0 3.21 0 4.81-.01 1.26 0 1.26 0 2.55-.01 2.7 0 5.4-.01 8.1-.03 1.83 0 3.65-.01 5.48-.01 4.49-.01 8.97-.03 13.46-.05 1.26-2.52.92-3.85.56-6.62-.15-1.23-.15-1.23-.31-2.48-.08-.63-.16-1.25-.25-1.9l-3-1-.89-2.39c-1.73-4.07-4.65-4.91-8.53-6.65-8.22-3.05-18.04.58-23.7 7.16ZM495.188 791.75c1.15.09 1.15.09 2.33.19 5.18.53 8.24 1.86 12.48 5.06 1.94.94 1.94.94 3.69 1.56 3.03 1.32 4.26 2.01 6.31 4.44.81.8 1.61 1.61 2.44 2.44l2.56 2.56c.68.64 1.36 1.28 2.07 1.94 4.27 4.55 6.41 9.09 8.21 14.95.89 2.61 2.29 4.77 3.72 7.11 1.58 6.02 1.19 12.28 1.19 18.46 0 2.17.02 4.33.04 6.5v4.14c.01 1.25.01 2.5.02 3.79-.25 3.11-.25 3.11-2.25 6.11-3.9 1.21-7.79 1.13-11.85 1.13h-2.03c-2.2.01-4.4.01-6.59 0-1.54 0-3.07 0-4.6.01-3.21 0-6.41 0-9.62-.01-4.11-.01-8.22 0-12.33 0-3.16.01-6.32.01-9.49 0-1.51 0-3.03 0-4.54.01-2.12 0-4.24-.01-6.35-.01h-3.65c-2.95-.13-2.95-.13-5.95-1.13-.33 2.83-.33 2.83 0 6 1.92 2.25 1.92 2.25 4 4v2c.79.29 1.57.58 2.38.87 2.62 1.13 2.62 1.13 4.62 3.13 16.82 4.3 37.62 3.32 54-2 3.13 2.54 3.71 4.94 4.57 8.81.73 3.23 1.44 6.22 2.62 9.32 1.25 4.42 2.09 8.37.81 12.87-5.44 5.84-13.25 7.11-20.86 7.79-2.47.24-4.93.56-7.39.87-11.1 1.29-21.69 1.45-32.81.21-1.09-.11-2.18-.23-3.3-.35-6.19-.8-10.44-2.08-15.64-5.52-1.28-.57-2.56-1.12-3.87-1.63-3.13-1.37-3.13-1.37-4.13-3.37-.88-.39-1.77-.78-2.69-1.19-3.61-1.97-5.42-4-7.91-7.19-1.49-1.88-1.49-1.88-4.4-3.62-1.05-1.97-2.05-3.98-3-6-.49-.78-.99-1.57-1.5-2.37-1.94-3.41-3.22-6.93-4.5-10.63-.34-.86-.68-1.73-1.03-2.62-1.13-3.93-1.26-7.58-1.23-11.63-.01-.78-.01-1.55-.01-2.35 0-1.64 0-3.27.01-4.9.01-2.49 0-4.98-.01-7.47 0-1.59 0-3.19.01-4.78-.01-.74-.01-1.48-.02-2.24.04-4.39.68-7.92 2.28-12.01.39-1.12.78-2.24 1.19-3.39.41-1.13.82-2.26 1.25-3.42.41-1.14.82-2.28 1.25-3.46.43-.9.86-1.8 1.31-2.73l3-1c.27-.87.54-1.73.81-2.63 2.38-6.74 7.75-11 13.19-15.37.6-.68 1.2-1.36 1.81-2.06 2.75-2.43 5.61-3.62 8.97-5.01 2.2-.86 2.2-.86 4.02-1.98 3.19-1.38 6.47-1.68 9.89-2.08.67-.08 1.34-.17 2.03-.26 8.21-.98 16.26-.7 24.47.14ZM471.998 826c-.97.35-1.94.7-2.93 1.06-4.51 2.86-7.19 6.96-9.07 11.94l1 6h39c.96-5.77 1.09-7.78-1-13-3.49-4.39-6.89-6.07-12-8l-2-1c-5.52-.36-8.39-.27-13 3ZM157.559 792.469c1.27-.01 2.55-.01 3.86-.02l2 .03c2.01.02 4.02 0 6.03-.03 1.27.01 2.55.01 3.86.02 1.74.01 1.74.01 3.53.01 3.85.63 5.46 1.73 8.16 4.52 2.09 4.09 2.27 7.59 2.3 12.14l.03 2.12c.03 2.31.04 4.61.05 6.92.02 1.61.03 3.22.05 4.83.05 4.23.08 8.47.11 12.71.06 6.77.12 13.54.19 20.31l.06 7.06c.01 1.46.02 2.92.04 4.38l.03 3.83c-.04 7.25-.04 7.25 2.7 13.58.72.55.72.55 1.44 1.12v2c8.18 1.49 16.85 1.81 25 0-.16-.98-.33-1.96-.49-2.97-.6-4.17-.63-8.26-.59-12.47 0-.81 0-1.63.01-2.47.01-2.67.03-5.34.05-8.01.01-.91.02-1.83.02-2.77.04-4.84.08-9.67.13-14.51.05-4.99.08-9.98.1-14.98.02-3.84.06-7.68.1-11.53.02-1.84.03-3.68.03-5.52.01-2.57.04-5.14.08-7.71-.01-1.14-.01-1.14-.01-2.31.07-3.46.32-5.41 2.42-8.22 2.98-2.11 5.08-2.03 8.71-2.02 1.91-.01 1.91-.01 3.86-.01l2 .03c2.01.03 4.02.03 6.03.01 11.51.08 11.51.08 15.55 3.46 2.5 5.46 2.28 10.82 2.26 16.7 0 1.07.01 2.13.01 3.23.01 3.51 0 7.03 0 10.54v7.34c.01 5.12 0 10.24-.01 15.37-.01 6.56 0 13.13.01 19.69.01 5.05 0 10.1 0 15.15v7.26c.01 3.39 0 6.77-.01 10.15 0 1 .01 2 .01 3.04-.05 8.62-.05 8.62-2.27 12.53-6.62 5.5-15.33 6.08-23.56 6.79-2.7.23-5.4.52-8.09.8-10.64 1.09-20.71 1.76-31.35.41l-4.04-.45c-11.21-1.32-11.21-1.32-14.96-3.55v-2l-2.5-.06c-4.88-1.31-8.2-4.14-11.5-7.94-.16-.69-.32-1.39-.48-2.1-.26-.94-.26-.94-.52-1.9-1.33-.67-2.66-1.34-4-2-1.19-1.99-1.19-1.99-2.12-4.31-.33-.81-.66-1.63-1-2.46-.29-.74-.58-1.47-.88-2.23-.39-.8-.78-1.61-1.19-2.44-3.12-9.86-2.01-21.51-2.05-31.77 0-1.37 0-1.37-.01-2.77-.02-4.81-.03-9.63-.04-14.44-.01-4.97-.05-9.94-.09-14.91-.03-3.83-.03-7.66-.04-11.5 0-1.83-.01-3.66-.03-5.5-.03-2.55-.03-5.11-.02-7.66-.01-.76-.02-1.51-.04-2.29.04-3.46.26-5.38 2.35-8.19 2.98-2.11 5.09-2.05 8.72-2.06ZM697.746 792.664l3.06-.02c2.13-.01 4.26-.01 6.38-.01 3.24-.01 6.47-.05 9.71-.08 2.07-.01 4.15-.01 6.23-.01 1.43-.03 1.43-.03 2.89-.05 6.57.05 11.19 1.52 16.98 4.51 1.2.47 2.4.94 3.63 1.43 10.43 4.83 16.32 12.91 20.37 23.57.35.64.69 1.28 1.04 1.94 4.07 8.69 2.15 21.62 2.17 31.05 0 1.35 0 1.35.01 2.73.01 4.76.02 9.51.02 14.27.01 4.91.03 9.82.06 14.73.02 3.78.03 7.57.03 11.35 0 1.82.01 3.63.02 5.44.02 2.52.02 5.05.01 7.57l.03 2.26c-.03 3.13-.22 5.34-1.71 8.12-2.66 2.44-5.07 2.02-8.61 2-1.01 0-1.01 0-2.04-.01-1.43 0-2.85-.02-4.28-.04-2.17-.04-4.35-.04-6.52-.04-12.25-.09-12.25-.09-15.23-2.37-2.1-4.12-2.26-7.67-2.3-12.25-.01-.71-.02-1.43-.02-2.16-.03-2.34-.04-4.68-.05-7.02l-.06-4.91c-.04-4.3-.08-8.6-.11-12.9-.05-6.88-.12-13.76-.19-20.63-.02-2.4-.04-4.79-.05-7.19-.02-1.48-.03-2.96-.04-4.44l-.03-3.89c-.3-7.41-.79-11.51-6.15-16.61-3.67-1.05-7.2-1.14-11-1.13-1.01 0-2.02 0-3.06-.01-2.76.13-5.24.56-7.94 1.14 0 1.11-.01 2.23-.01 3.39-.06 10.53-.13 21.07-.22 31.6-.05 5.42-.09 10.84-.11 16.25-.03 5.23-.07 10.45-.12 15.68-.02 2-.03 3.99-.03 5.99-.01 2.79-.04 5.58-.07 8.37v2.51c-.05 3.3-.21 5.77-1.77 8.72-2.66 2.37-5.07 1.99-8.56 1.98-.68 0-1.35 0-2.04.01-1.42-.01-2.84-.02-4.26-.04-2.17-.03-4.33-.02-6.49-.01-1.39 0-2.77-.01-4.15-.02-1.88-.02-1.88-.02-3.8-.03-3.65-.44-5.56-1.03-8.37-3.4-.87-3.26-1.12-6.34-1.13-9.7 0-.92-.01-1.83-.01-2.78v-3c0-1.06-.01-2.11-.01-3.2-.01-3.48-.01-6.96-.01-10.45-.01-2.42-.01-4.84-.01-7.26-.01-5.08-.01-10.15-.01-15.23 0-6.51-.01-13.01-.03-19.51-.01-5.01-.02-10.01-.01-15.01-.01-2.4-.01-4.8-.02-7.2-.01-3.35-.01-6.7 0-10.06 0-.99-.01-1.98-.02-3 .03-4.9.2-9.05 2.26-13.6 3.01-2.22 6.65-2.72 10.25-3.5 3.47-.77 6.89-1.54 10.3-2.53 5.06-1.26 10.01-1.3 15.2-1.31ZM1232.938 791.875c1.01.08 2.02.16 3.06.24.96.08 1.92.17 2.9.25.87.08 1.73.15 2.61.22 5.03.83 8.89 2.81 12.49 6.41 2.83 7.94-1.26 17.23-3.9 24.76-1.1 2.24-1.1 2.24-4.1 4.24-5.66.18-11.21-.52-16.5-2.56-5.42-1.98-10.8-2.32-16.5-1.44-2.85 1.39-4.62 2.85-7 5 .11 2.91.11 2.91 1 6 2.48 1.78 2.48 1.78 5 3v2l1.69.08c5.12.38 8.84 1.4 13.32 3.88 2.08 1.09 4.15 1.89 6.37 2.67 3.62 1.37 3.62 1.37 5.62 3.37 1.05.42 2.11.83 3.19 1.26 5.6 2.32 9.65 5.8 12.75 11 1.06 2.74 1.06 2.74 1.06 4.74h2c3.14 5.26 2.45 11.12 2.5 17.07.04 1.18.08 2.35.13 3.57.09 10.02-2.63 16.72-9.15 24.3-4.67 4-8.65 7.08-14.48 9.06-.62.34-1.24.67-1.88 1.02-11.91 5.55-29.39 4.41-42.12 2.98-1.61-.12-3.23-.23-4.85-.34-17.78-1.35-17.78-1.35-24.15-6.66-2.24-2.85-3.01-4.31-2.92-7.97.3-1.53.3-1.53.61-3.09.19-1.02.38-2.04.57-3.1.67-2.55 1.53-4.51 2.74-6.84.56-2.02 1-4.04 1.44-6.09.56-1.91.56-1.91 2.56-4.91.64.14 1.28.28 1.94.42 2.44.46 4.86.88 7.31 1.27.78.12 1.55.24 2.35.37 1.6.26 3.2.51 4.81.75 3.23.52 6.1.99 9.12 2.27 3.64 1.36 7.12 1.25 10.97 1.24 1.12.02 1.12.02 2.26.05 4.51 0 7.68-.3 11.24-3.37.42-3.62.42-3.62 0-7-.88-.43-1.77-.86-2.68-1.31-3.32-1.69-3.32-1.69-5.76-3.25-2.62-1.6-2.62-1.6-6.06-2.44-3.36-.96-5.54-2.19-8.5-4-2.64-1.08-5.3-2.04-8-3v-2c-.89-.23-.89-.23-1.79-.48-7.03-2.07-11.15-5.32-15.21-11.52v-2h-2c-2.22-3.34-2.79-5.83-3.62-9.74-.26-1.2-.52-2.39-.79-3.61-1.07-6.67-.47-12.32 1.16-18.77.16-.69.32-1.38.48-2.09 2.16-8.68 8.72-14.62 15.77-19.79 1.99-1.03 3.99-2.03 6-3 .99-.65 1.98-1.32 3-2 2.83-.47 5.59-.84 8.44-1.12 1.23-.13 1.23-.13 2.48-.25 10.47-1.01 20.55-.59 31.02.25ZM967.688 757.125c2.31.88 2.31.88 3.43 2.5 1.17 3.16 1.21 5.95 1.3 9.33l.06 2 .15 6.29c.04 1.43.07 2.86.11 4.29.1 3.49.18 6.98.26 10.47 1.55.02 1.55.02 3.14.06 3.84.07 7.69.16 11.54.25 1.66.04 3.33.08 4.99.11 2.4.04 4.79.1 7.19.16.74.01 1.48.02 2.24.04 4.03.11 7.32.46 10.9 2.38 2.23 4.45 1.23 10.54 1.25 15.43l.06 3.8.02 3.64.03 3.34c-.41 3.2-.88 3.84-3.36 5.79-2.93.33-5.66.48-8.6.51-.84.01-1.68.03-2.55.05-2.68.06-5.36.09-8.04.12-1.81.04-3.63.07-5.45.11-4.45.08-8.9.15-13.36.21-.05 6.56-.08 13.13-.11 19.69-.01 2.23-.02 4.46-.04 6.7-.02 3.21-.03 6.43-.04 9.64l-.03 3.01c-.01 7.59.9 14.47 5.22 20.96 8.84 3.17 20.59.85 29.75-.18 3.25.18 3.25.18 5.62 1.79 1.94 2.84 2.35 4.86 2.76 8.26.46 3.37.92 6.26 2 9.5 1.07 3.22 1.43 5.26.87 8.63-1.96 3.23-4.39 5.37-7.92 6.74-2.68.61-5.34.94-8.08 1.26-1.43.21-2.85.43-4.28.66-9.55 1.34-18.52 1.41-28.09.21-.97-.12-1.94-.23-2.94-.35-5.63-.82-9.2-2.03-13.69-5.52-.84-.31-1.69-.62-2.56-.94-5.4-2.36-8.41-7.22-11.44-12.06-.77-1.15-.77-1.15-1.56-2.32-5.5-10.28-6.74-21.73-6.71-33.21-.01-1.1-.01-2.21-.02-3.35-.01-3.62-.01-7.24-.01-10.86 0-2.53-.01-5.06-.01-7.59-.01-5.29-.01-10.57 0-15.86 0-6.1-.01-12.21-.03-18.31-.02-5.89-.02-11.78-.02-17.67 0-2.5-.01-5-.02-7.5-.01-3.49 0-6.97.01-10.46-.01-1.03-.02-2.07-.02-3.13.06-8.78.06-8.78 3.39-12.74 2.86-1.94 5.4-2.32 8.81-2.57.91-.07 1.83-.15 2.76-.22l2.87-.21c5.99-.45 12.61-3.14 18.25-2.88ZM601.82 792.637h2.74c1.89 0 3.78.01 5.68.03 2.88.02 5.77.02 8.65.01 1.85.01 3.7.01 5.55.02h2.59c6.24.07 11.37.77 16.84 3.99 2.94 3.19 3.06 4.98 3.13 9.31-.84 8.21-2.48 19.36-9 25-.97-.31-1.94-.62-2.94-.93-9.85-2.78-21.08-3.19-31.06-1.07-.01 1.11-.01 2.22-.02 3.36-.06 10.41-.13 20.83-.22 31.25-.04 5.35-.08 10.71-.11 16.07-.02 5.16-.06 10.33-.11 15.5-.02 1.97-.03 3.95-.04 5.92-.01 2.76-.04 5.52-.07 8.28 0 .82 0 1.63.01 2.48-.06 3.27-.21 5.71-1.78 8.62-4.49 4.12-11.79 2.75-17.54 2.76-2.11.01-4.23.04-6.34.08-1.34 0-2.69.01-4.03.01l-3.7.03c-3.05-.36-3.05-.36-4.91-1.69-2.06-3.01-2.27-5.67-2.28-9.21-.01-.93-.01-1.86-.02-2.82v-3.09c-.01-1.07-.01-2.15-.02-3.26-.01-3.56-.02-7.12-.02-10.69-.01-2.47-.01-4.94-.02-7.41-.01-5.19-.02-10.38-.02-15.56-.01-6.65-.03-13.3-.06-19.95-.02-5.11-.02-10.22-.02-15.33-.01-2.45-.01-4.9-.03-7.35-.02-3.43-.01-6.86-.01-10.29-.01-1.01-.02-2.03-.02-3.07.03-6.37.75-10.01 5.38-14.64 2.34-.55 4.7-1.02 7.06-1.43 4.24-.76 8.06-1.58 12.08-3.1 4.96-1.67 9.48-1.89 14.68-1.83Z"/><path fill="#306CE5" d="M716.668 402.61c1 .17 1.99.34 3.02.51 3.17.54 6.33 1.08 9.5 1.63 2.07.35 4.14.7 6.22 1.06 4.12.69 8.24 1.4 12.36 2.12 4.28.74 8.56 1.46 12.84 2.16 1.59.26 1.59.26 3.21.53 2.03.34 4.06.67 6.09 1 .9.15 1.81.3 2.74.46.79.13 1.59.26 2.41.39 1.94.53 1.94.53 3.94 2.53-.28 5.08-2.32 9.19-4.62 13.63-.36.7-.72 1.4-1.1 2.13-8.25 15.96-17.75 28.96-30.4 41.68-.85.85-1.7 1.7-2.57 2.58-4.84 4.78-9.76 9.06-15.31 12.98-.67.57-1.34 1.14-2.04 1.72-.64.43-1.29.85-1.96 1.28l-3-1v-2h-2c-4.48-10.33-8.93-20.65-12.9-31.19-1.4-3.59-3.01-7.08-4.64-10.58-1.95-4.32-3.8-8.68-5.65-13.04-.34-.81-.69-1.63-1.04-2.47-5.87-13.93-5.87-13.93-4.77-20.72 6.31-12.39 17.99-9.44 29.67-7.39ZM501 281c3.9.39 5.64 2.35 8.25 5.12 3.38 3.5 6.83 6.77 10.52 9.93 2.79 2.44 5.51 4.94 8.23 7.45 3.96 3.64 7.95 7.24 12.01 10.76 3.21 2.81 6.37 5.68 9.53 8.55 1.54 1.37 3.11 2.72 4.7 4.04 4.53 3.75 8.68 7.52 10.76 13.15.43 4.55-.39 7.91-2.62 11.88-5.33 4.76-12.69 6.17-19.44 8-2.19.6-4.38 1.2-6.56 1.8-1.28.35-2.55.7-3.86 1.07-8.64 2.39-17.27 4.84-25.9 7.29-3.17.9-6.35 1.79-9.53 2.69-5.03 1.42-10.06 2.85-15.09 4.27-3.78-3.78-3.1-10.36-3.25-15.5.22-23.42 4.75-63 22.25-80.5ZM614 208c1 1 1 1 1.07 3.09l-.09 2.85c-.04 1.65-.04 1.65-.09 3.33-.24 6.34-.48 12.69-.77 19.03-.08 1.89-.17 3.78-.25 5.67-.28 6.53-.6 13.06-.95 19.6-.11 2.19-.22 4.39-.32 6.59-.14 3.13-.31 6.26-.49 9.39-.04.94-.07 1.88-.11 2.84-.4 6.24-1.89 10.8-6 15.61-4.29 2.86-7.97 2.75-13 2-3.04-1.34-5.47-3.19-8.06-5.25-1.48-1.11-2.97-2.22-4.45-3.33-.74-.57-1.49-1.14-2.26-1.73-3.49-2.64-7.08-5.13-10.67-7.63-6.7-4.72-13.37-9.5-20-14.32-3.58-2.6-7.17-5.17-10.81-7.68l-1.99-1.38c-1.22-.85-2.46-1.69-3.7-2.52-1.63-1.14-1.63-1.14-4.06-3.16 0-3 0-3 2.1-5.13 16.85-13.83 34.59-24.57 55.21-31.81 1.08-.38 2.15-.75 3.25-1.14 8.49-2.86 17.39-5.37 26.44-4.92ZM575.813 402.688c3.4 3.6 5.35 6.3 5.69 11.31-.32 9.23-5.44 18.04-9.26 26.27-5.05 11.08-9.39 22.49-13.85 33.81-.27.67-.53 1.34-.8 2.02-.74 1.86-1.47 3.71-2.2 5.56-1.33 3.2-2.81 6.27-4.39 9.34-4.14-1.41-6.98-3.38-10.31-6.19-.97-.81-1.94-1.62-2.94-2.46-1.36-1.16-1.36-1.16-2.75-2.35-.66-.54-1.32-1.09-2-1.65-18.09-15.28-35.55-35.4-43-58.35-.03-2-.04-4 0-6 10.54-1.85 21.08-3.69 31.62-5.53 5.37-.94 10.73-1.88 16.09-2.83 3.18-.57 6.35-1.12 9.53-1.68 1.49-.26 2.99-.53 4.48-.79 19.17-3.43 19.17-3.43 24.09-.48ZM653 208c11.32-.15 21.38 2.06 32 5.94 1.62.59 1.62.59 3.26 1.18 15.19 5.72 29.26 13.48 41.74 23.88 1.31 1.09 1.31 1.09 2.65 2.2 6.55 5.6 6.55 5.6 8.35 9.8-6.27 5.26-12.78 9.99-19.55 14.58-5.19 3.54-10.31 7.17-15.39 10.86-6.82 4.95-13.68 9.85-20.58 14.69-.66.47-1.32.93-2 1.41-.62.43-1.23.86-1.86 1.3-1.31.94-2.58 1.94-3.83 2.96-2.8 1.87-5.11 1.79-8.4 1.7-4.66-.97-8.09-4.2-11.39-7.5a96.02 96.02 0 0 1-.46-5.36c-.08-1.15-.16-2.3-.24-3.49-.08-1.26-.16-2.52-.24-3.82-.08-1.3-.17-2.6-.26-3.94-.18-2.77-.35-5.55-.53-8.32-.22-3.49-.45-6.97-.68-10.46-1.03-15.86-1.95-31.72-2.59-47.61ZM766 281c11.65 14.29 17.64 35.19 21 53 .27 1.42.27 1.42.55 2.87 1.48 8.53 1.69 16.81 1.57 25.44-.01 1.34-.01 2.68-.02 4.02-.03 3.22-.06 6.45-.1 9.67-7.37-.63-14.18-2.61-21.27-4.68l-3.84-1.11c-2.68-.77-5.36-1.55-8.04-2.33-3.4-.99-6.8-1.97-10.2-2.95-2.65-.77-5.3-1.53-7.94-2.3-1.86-.54-3.71-1.07-5.56-1.61-24.92-7.27-24.92-7.27-28.53-13.33-1.02-4.42-.34-8.08 1.5-12.19 4.84-6.44 11-11.28 17.24-16.3 2.85-2.37 5.42-4.88 7.98-7.54 2.34-2.35 4.85-4.48 7.36-6.64 2.81-2.46 5.55-4.99 8.3-7.52 4.07-3.75 8.18-7.45 12.38-11.06 1.65-1.42 1.65-1.42 3.15-3.06C763 282 763 282 766 281ZM634.875 432.438c.82-.06 1.64-.13 2.49-.19 5.2 1.49 7.71 6.18 10.32 10.61 1.53 2.8 3.03 5.61 4.49 8.44 1.63 3.14 3.28 6.26 4.94 9.39.33.63.66 1.25 1 1.9 2.95 5.58 6.04 11.07 9.2 16.54l1.45 2.52c.94 1.64 1.88 3.27 2.83 4.9 2.4 4.18 4.79 8.38 7.16 12.58.43.75.86 1.5 1.3 2.28 2.94 5.25 2.94 5.25 2.94 8.59-30.96 6.79-64.33 11.96-95 0-1.8-1.59-1.8-1.59-3-3l1.41-2.48c5.19-9.18 10.31-18.41 15.41-27.64.34-.62.68-1.25 1.04-1.89 3.59-6.51 7.17-13.03 10.7-19.57.55-1.01 1.09-2.01 1.65-3.05 1-1.85 2-3.72 2.99-5.58 7.5-13.91 7.5-13.91 16.68-14.35ZM644.139 336.367c4.44.98 6.67 2.99 9.17 6.7 1.99 3.41 1.99 3.41 3.69 6.93.58.82.58.82 1.16 1.66 2.44 3.51 3.11 5.77 2.5 10.04-.36 1.67-.75 3.33-1.16 4.99-.17.84-.35 1.68-.53 2.55-1.27 5.58-2.65 8.62-7.58 11.81-1.87 1.13-3.77 2.17-5.7 3.2-.64.37-1.28.73-1.94 1.1-4.4 2.38-7.66 3.41-12.75 2.65-3.27-1.34-6.27-3.03-9.31-4.81-.81-.45-1.62-.9-2.46-1.37-7.47-4.26-7.47-4.26-9.08-9.67-.26-1.1-.51-2.2-.77-3.33-.26-1.09-.52-2.18-.79-3.3-1.74-10.42-1.74-10.42 1.71-15.25.99-1.21 1.99-2.4 3.01-3.58.5-.61 1-1.21 1.52-1.84 1.36-1.64 2.74-3.26 4.17-4.85.44-.54.88-1.08 1.33-1.64 5.39-4.37 17.29-2.61 23.81-1.99ZM332 160c.99.5.99.5 2 1-.99.5-.99.5-2 1v-2Z"/></svg>