<svg xmlns="http://www.w3.org/2000/svg" width="1280" height="640"><path d="M293.121 210.371c.62.54 1.24 1.08 1.88 1.63v2l3 1v2c.54.21 1.07.41 1.62.62 3.3 1.91 5.97 4.43 8.38 7.38v2h2c1.51 1.68 1.51 1.68 3.12 3.87.54.72 1.08 1.44 1.64 2.18 1.24 1.95 1.24 1.95 1.24 3.95 3.68-.98 6.96-1.98 10.44-3.56 4.12-1.67 7.12-2.29 11.56-2.44 6.14 4.73 10.5 13.52 12 21-5.18 3.29-10.32 5.21-16.16 7.07-2.98.92-2.98.92-6.28 2.43-5.38 2.27-10.97 3.82-16.56 5.5-1.49.49-1.49.49-3 1 .31.63.63 1.26.95 1.91 3.59 7.51 5.96 15.05 8.05 23.09.42 1.59.42 1.59.84 3.21 1.6 6.22 2.96 12.47 4.16 18.79 1.18-.43 2.36-.87 3.58-1.31 1.55-.57 3.11-1.13 4.67-1.69.78-.29 1.55-.57 2.35-.87.76-.27 1.51-.54 2.29-.82.69-.25 1.38-.5 2.09-.76 2.02-.55 2.02-.55 6.02-.55 2.18 7.68 1.99 14.39 1.31 22.31-.08 1.15-.16 2.29-.24 3.48-.6 7.66-1.97 14.82-4.07 22.21l-1.03 3.73c-1.85 6.13-3.94 11.65-6.97 17.27-1.21 2.41-2.42 4.83-3.63 7.25-.59 1.19-1.19 2.38-1.79 3.58-.52 1.04-1.04 2.09-1.58 3.17-.67 1.33-1.33 2.67-2 4h-2c-.39 1.09-.39 1.09-.78 2.21-1.27 2.89-2.74 4.97-4.72 7.41-1.95 2.43-3.77 4.79-5.5 7.38h-2c-.31.8-.31.8-.63 1.62-1.9 3.3-4.42 5.97-7.37 8.38h-2l-1 3h-2v2c-1.55 1.31-1.55 1.31-3.74 2.79-1.19.82-1.19.82-2.41 1.65-.86.58-1.72 1.15-2.6 1.75-1.31.88-1.31.88-2.64 1.77-9.86 6.61-19.27 12.29-30.61 16.04-1.34.51-2.67 1.03-4 1.56-25.58 9.47-60.14 12.21-85.73 1.39-2.28-.95-4.5-1.58-6.9-2.2-16.74-4.93-31.05-14.76-44.37-25.75-.92-.7-1.84-1.39-2.79-2.11-1.09-.94-1.09-.94-2.21-1.89v-2l-3-1v-2h-2v-2l-3-1c-2.09-2.8-3.97-5.7-5.87-8.63-1.89-2.59-1.89-2.59-4.61-2.83-2.6.47-4.59 1.18-6.96 2.33-5.2 2.44-9.71 4.47-15.56 4.13-.99-2.48-.99-2.48-2-5h-2c-.39-.8-.77-1.59-1.17-2.42-3.14-6.48-3.14-6.48-6.96-12.58-2.39-3.83-3.58-7.74-4.92-12.03-.81-2.52-1.71-4.95-2.7-7.41-1.89-5.38-1.89-5.38-1.25-8.56 2.99-2.72 5.99-3.82 9.81-5 3.31-1.05 6.44-2.11 9.63-3.5 4.4-1.86 8.89-3.18 13.47-4.54 2.77-.86 5.42-1.84 8.09-2.96.22-4.33-.37-7.9-1.49-12.03-.68-2.63-1.11-5.29-1.51-7.97-1.61.45-3.21.91-4.81 1.37-.9.26-1.79.51-2.71.78-2.69.8-2.69.8-5.48 2.85-3.19.12-3.19.12-6 0-1.71-3.42-1.19-7.31-1.19-11.06v-2.71c.13-14.31 1.62-28.48 7.18-41.75.96-2.37 1.79-4.74 2.57-7.17 1.26-3.89 2.77-7.58 4.44-11.31h2c.15-1.1.15-1.1.31-2.21.75-3.06 1.87-4.87 3.69-7.42 1.81-2.55 3-4.38 4-7.37h2c.21-.66.41-1.32.62-2 1.87-4.07 4.35-7.69 7.38-11h2l1-3h2v-2h2l1-3h2v-2h2v-2c3.46-3 3.46-3 6-3v-2c5.55-4.64 11.63-8.59 18-12 .82-.47 1.64-.94 2.48-1.43 6.33-3.59 12.64-6.24 19.52-8.57 1.36-.52 2.71-1.04 4.06-1.56 46.27-17.28 95.28-4.01 134.06 23.93Zm-115.12 23.63c-1.14.31-2.27.63-3.45.96-6.85 2.18-12.58 5.06-18.55 9.04-1.08.69-2.16 1.39-3.27 2.1-6.52 4.29-11.94 8.69-16.73 14.9-.64.75-1.29 1.49-1.95 2.26-9.77 11.54-20.35 29.89-19.05 45.74l2 2c.81-.28 1.62-.56 2.45-.84 1.6-.54 1.6-.54 3.24-1.1 1.05-.36 2.11-.72 3.2-1.09 2.7-.84 5.33-1.44 8.11-1.97.25 3.96.47 7.91.69 11.87.07 1.13.14 2.26.22 3.42l.16 3.26c.06 1 .12 1.99.18 3.02-.08.8-.17 1.6-.25 2.43-3.09 2.06-5.52 2.85-9.06 3.87-4.98 1.49-9.74 3.2-14.53 5.19-2.53.98-5.06 1.76-7.66 2.5-3.83 1.1-7.25 2.5-10.75 4.44 2.03 10.49 6.12 19.54 11 29 .67 1.33 1.33 2.66 2 4h2v3h2c.25.58.49 1.15.75 1.75 1.49 2.68 2.84 4.34 5.25 6.25 2.72-.02 2.72-.02 5.56-1l3.18-.93c4.8-1.58 9.55-3.24 14.26-5.07.46.42.92.85 1.4 1.28 18.27 16.44 38.42 25.12 63.04 24.97 1.26.01 2.51.01 3.81.02 9.92-.02 18.49-.91 27.48-5.21 2.34-1.1 4.72-1.98 7.14-2.87 5.85-2.31 10.97-5.64 16.13-9.19 1.15-.79 1.15-.79 2.32-1.59.55-.47 1.11-.93 1.68-1.41v-2l1.94-.81c2.39-1.08 2.39-1.08 3.06-4.19l3-1v-2h2c1.7-2.09 3.27-4.17 4.81-6.38l1.37-1.95c8.19-11.85 15.42-26.9 13.82-41.67-1 .35-2 .7-3.04 1.06l-4.02 1.38c-.66.23-1.32.46-1.99.69-4.33 1.47-8.41 2.36-12.95 2.87.02-1.47.02-1.47.03-2.97.09-10.55.09-10.55-1.03-21.03-.11-.7-.22-1.4-.34-2.12-1.44-7.63-4.73-14.56-7.88-21.62-.26-.74-.52-1.49-.78-2.26 1-2 1-2 3.37-2.93 1.01-.31 2.02-.62 3.07-.95 3.96-1.26 7.84-2.59 11.68-4.18 4.12-1.69 8.27-2.99 12.54-4.21 3.24-1.01 6.26-2.32 9.34-3.73-.47-4.92-1.75-7.5-4.94-11.25-.71-.85-1.42-1.7-2.15-2.58a90.51 90.51 0 0 0-3.91-4.17c-5.13.57-10.06 2.57-14.94 4.16-3.78 1.04-6.33 1.08-10.06-.16v-2h-2v-2c-5.77-4.9-12.07-8.97-19-12-1.14-.52-2.27-1.03-3.44-1.56-4.13-1.67-8.27-3.21-12.56-4.44-.6-.17-1.19-.35-1.81-.52-6.97-1.8-13.84-1.81-21-1.79-1.8-.03-1.8-.03-3.62-.05-7.96-.01-14.96 1.07-22.57 3.36ZM718.313 284.563c.86-.03 1.71-.07 2.59-.1 4.5-.04 6.45.03 10.09 2.9 5.01 6.58 5.01 6.58 5.01 9.64h2c.57 1.03 1.15 2.06 1.75 3.12 1.4 2.48 2.88 4.85 4.5 7.19 1.75 2.69 1.75 2.69 1.75 4.69h2v3h2c1.51 1.86 1.51 1.86 3.12 4.31l1.64 2.43c1.24 2.26 1.24 2.26 1.24 5.26h2c1.44 1.98 1.44 1.98 3.12 4.75 2.58 4.22 5.27 8.36 8.02 12.47.72 1.08 1.44 2.16 2.19 3.28.82 1.24.82 1.24 1.67 2.5.01-.79.01-1.57.02-2.38.08-7.39.17-14.77.27-22.16.05-3.8.09-7.6.13-11.4.04-3.66.08-7.32.14-10.99.01-1.39.03-2.79.04-4.19.02-1.96.05-3.92.08-5.87.01-1.12.03-2.23.04-3.38.28-2.63.28-2.63 2.28-4.63 3.12-.47 6.28-.37 9.43-.38.88-.02 1.75-.05 2.65-.07.84-.01 1.67-.01 2.54-.01l2.32-.03c2.89.69 3.52 2.01 5.06 4.49.38 2.12.38 2.12.39 4.44.01.88.01 1.76.03 2.67-.01.97-.01 1.93-.02 2.92.01 1.02.02 2.03.02 3.08.02 3.37.02 6.74.01 10.11.01 2.34.01 4.67.02 7.01.01 4.91 0 9.81-.01 14.71-.01 6.29.01 12.58.04 18.87.02 4.83.02 9.65.01 14.48 0 2.32.01 4.64.02 6.96.02 3.24.01 6.48-.01 9.72l.03 2.91c-.07 6.46-.07 6.46-2.33 9.71-3.26 2.08-6.4 2.03-10.14 1.97-1.05.04-1.05.04-2.13.07-3.83-.01-5.7-.45-8.73-2.84-2.05-2.6-3.87-5.15-5.58-7.98-2.93-4.75-6.05-9.3-9.34-13.82-1.28-1.99-1.28-1.99-1.28-3.99h-2c-1.52-2.09-1.52-2.09-3.25-4.94-2.79-4.52-5.67-8.93-8.69-13.29-1.06-1.77-1.06-1.77-1.06-3.77h-2c-.58-1.05-1.16-2.11-1.75-3.19a44.85 44.85 0 0 0-4.5-6.56c-1.75-2.25-1.75-2.25-1.75-5.25h-2l-.03 2.33c-.07 7.26-.16 14.51-.26 21.76-.05 3.73-.1 7.46-.13 11.19-.04 3.6-.09 7.2-.14 10.8-.02 1.37-.03 2.74-.05 4.12-.01 1.92-.04 3.84-.07 5.77-.02 1.09-.03 2.19-.04 3.31-.28 2.72-.28 2.72-2.28 5.72-1.93.39-1.93.39-4.25.4-.84 0-1.67 0-2.54.01l-2.65-.04-2.64.04c-.84-.01-1.68-.01-2.54-.01-1.15-.01-1.15-.01-2.33-.01-2.63-.5-3.39-1.31-5.05-3.39-.38-2.05-.38-2.05-.38-4.45l-.02-2.76.03-3.02c-.01-1.05-.01-2.1-.02-3.18 0-3.48.01-6.96.02-10.44v-7.24c0-5.06.01-10.11.03-15.17.02-6.5.02-12.99.02-19.49-.01-4.98 0-9.96.01-14.94 0-2.4.01-4.8 0-7.19 0-3.34.02-6.69.03-10.03v-3.02c0-.91.01-1.82.02-2.75v-2.4c.76-5.73 7.2-4.33 11.57-4.36ZM429.625 283.75l2.87-.06c9.52-.05 17.29 1.95 25.13 7.37 1.02.69 2.05 1.39 3.1 2.1.75.61 1.5 1.21 2.28 1.84v2h2c4.51 5.84 8.49 12.04 11 19 .49 1.3.49 1.3.99 2.62 5.3 17.78 3.95 38.63-3.99 55.38-6.66 11.55-15.38 19.54-28 24-6.6 1.06-13.34 1.22-20 1-.76.01-1.52.01-2.29.02-8.86-.3-17.95-4.52-24.41-10.53-1.14-1.23-1.14-1.23-2.3-2.49l-1.85-1.85c-11.46-12.28-14.69-29.73-14.34-46.08.57-9.44 1.86-17.63 6.19-26.07.45-1.18.9-2.35 1.37-3.56 1.99-4.22 4.44-8.02 7.63-11.44h2v-2c9.09-8.89 20.43-11.19 32.62-11.25ZM415.005 311v2h-2c-9.12 10.28-8.78 23.99-8 37 .92 9 4.4 16.43 11.11 22.59 4.63 3.46 9.93 5.09 15.74 4.82 6.48-1.23 11.68-4.29 15.65-9.54.85-1.27 1.69-2.56 2.5-3.87.65-.99 1.31-1.98 2-3 3.09-7.65 3.3-15.84 3-24l-.09-2.47c-.52-7.96-3.28-15.01-7.91-21.53h-2v-2c-5.07-4.68-10.9-5.39-17.54-5.26-4.84.51-8.43 2.57-12.46 5.26ZM614.89 284.87c.72 0 1.44 0 2.18-.01 2.39 0 4.79 0 7.18.01 1.65 0 3.31-.01 4.97-.01 3.47 0 6.94 0 10.42.01h13.38c3.42-.01 6.84-.01 10.26 0 1.65 0 3.29 0 4.94-.01 2.3 0 4.59 0 6.89.01h3.97C682 285 682 285 683 286c.1 1.55.13 3.1.13 4.66 0 .94 0 1.88.01 2.84-.01.99-.01 1.98-.02 3 .01.99.01 1.98.02 3-.01.94-.01 1.87-.01 2.84v2.63C683 307 683 307 682 308c-1.6.12-3.2.18-4.8.2-1.02.02-2.04.04-3.09.07-1.11.01-2.22.03-3.36.05l-3.43.06-10.88.18c-2.46.05-4.91.09-7.36.13-6.03.11-12.05.21-18.08.31v20c2.08-.01 4.16-.02 6.31-.04 2.01 0 4.02-.01 6.02-.02 1.4 0 2.8-.01 4.2-.02 2.01-.01 4.02-.01 6.03-.02 1.81-.01 1.81-.01 3.66-.01C660 329 660 329 661 330c.1 1.48.13 2.96.13 4.44 0 1.34 0 1.34.01 2.71-.01.94-.01 1.88-.02 2.85l.02 2.85c-.01.9-.01 1.79-.01 2.71v2.51C661 350 661 350 660 351c-2.22.09-4.44.11-6.66.1-1-.01-1-.01-2.01-.01-2.13 0-4.26-.02-6.39-.03-1.44 0-2.88-.01-4.33-.01-3.53-.01-7.07-.03-10.61-.05.49 11.38.49 11.38 1 23l55 1c1.7 3.41 1.23 7.18 1.25 10.94l.06 2.49.02 2.41.03 2.2c-.49 2.68-1.15 3.36-3.36 4.96-2.52.28-4.79.39-7.3.36h-2.24c-2.45.01-4.9-.01-7.34-.03-1.7-.01-3.4-.01-5.1-.01-3.55 0-7.11-.02-10.66-.04-4.57-.03-9.14-.04-13.71-.04l-10.51-.03c-1.68 0-3.37-.01-5.05-.01-2.35-.01-4.7-.02-7.05-.04h-2.13c-4.8-.05-4.8-.05-5.91-1.16-.1-1.44-.13-2.88-.13-4.33 0-.93 0-1.87-.01-2.83.01-1.03.01-2.06.01-3.13 0-1.08 0-2.16-.01-3.27 0-3.6 0-7.19.01-10.78 0-2.49-.01-4.97-.01-7.46 0-5.88.01-11.77.01-17.65v-14.11c-.01-6.46-.01-12.93 0-19.39 0-2.47 0-4.95-.01-7.42 0-3.45 0-6.9.01-10.34 0-1.04 0-2.07-.01-3.13.01-.94.01-1.87.01-2.83v-2.48c.3-4.38 4.52-2.98 8.02-2.98ZM507.82 284.855c1.03-.01 2.06-.01 3.12-.02h3.4c1.15-.01 2.3-.01 3.49-.01 2.45-.01 4.89-.01 7.34-.01 3.72 0 7.44-.02 11.16-.04 2.38 0 4.76 0 7.13-.01l3.35-.02c12.58.04 22.92 2.09 32.31 11.01 1.88 2.25 1.88 2.25 1.88 4.25h2c5.41 10.09 7.01 21.34 4.09 32.46-3.77 9.63-9.64 16.87-19 21.47-9.13 3.77-19.43 3.31-29.15 3.63-1.25.04-2.5.08-3.78.13-3.05.1-6.11.21-9.16.31-.01 1.14-.03 2.28-.04 3.45-.06 4.23-.14 8.45-.22 12.67-.04 1.83-.06 3.66-.09 5.49-.03 2.63-.08 5.25-.14 7.88l-.02 2.48c-.06 2.31-.06 2.31-.49 6.03-3.13 2.08-3.85 2.24-7.41 2.23-.85-.01-1.69-.01-2.56-.01-.88-.01-1.75-.02-2.66-.04h-2.67c-6.56-.04-6.56-.04-7.7-1.18a62.6 62.6 0 0 1-.13-4.33c0-.94 0-1.87-.01-2.83.01-1.04.01-2.07.01-3.13v-3.28c-.01-3.59-.01-7.19 0-10.78 0-2.48 0-4.97-.01-7.45 0-5.89.01-11.77.01-17.66.01-4.7 0-9.4 0-14.1-.01-6.47-.01-12.93 0-19.4 0-2.47 0-4.94-.01-7.41 0-3.45 0-6.9.01-10.35 0-1.03 0-2.06-.01-3.13.01-.93.01-1.87.01-2.83v-2.47c.26-3.79 2.72-2.99 5.95-3Zm17.18 23.15v26h32v-2c.6-.23 1.2-.46 1.81-.69 2.9-1.74 3.82-3.23 5.19-6.31.68-6.28-.86-10.21-4.65-15.16-3.3-2.59-5.58-2.3-9.74-2.24-.71.01-1.41.02-2.14.02-2.24.02-4.48.07-6.72.13-1.52.02-3.05.03-4.57.05-3.73.04-7.45.12-11.18.2ZM927.688 284.813c.7.01 1.4.03 2.13.04 1.73.04 3.45.09 5.18.15 1.14 2.28 1.16 3.63 1.21 6.17l.06 2.65c.02.91.03 1.83.05 2.78l.06 2.55c.06 3.16.12 6.32.19 9.47.14 7.06.28 14.11.43 21.38 23.27.49 23.27.49 47 1-.08-14.39-.08-14.39-.18-28.78 0-1.8-.01-3.6-.01-5.4l-.03-2.85v-2.71c-.01-.77-.01-1.55-.02-2.35.24-1.91.24-1.91 2.24-3.91 3.15-.3 3.15-.3 6.94-.31l3.78-.06c3.28.37 3.28.37 4.96 1.62 1.67 2.2 1.7 3.4 1.7 6.15l.03 2.73c-.01.98-.01 1.97-.02 2.98.01 1.04.01 2.08.02 3.15.01 3.45 0 6.89-.01 10.33 0 2.39.01 4.78.01 7.16 0 5.01 0 10.02-.02 15.02-.01 6.43 0 12.86.01 19.28.02 4.93.01 9.87 0 14.8 0 2.37 0 4.74.01 7.11.01 3.31 0 6.61-.02 9.92.01.99.01 1.97.02 2.99l-.03 2.72v2.38c-.48 2.59-1.28 3.47-3.38 5.03-3.28.4-3.28.4-7.06.37-1.87.01-1.87.01-3.79.03-1.04-.14-2.08-.27-3.15-.4-2.13-3.2-2.24-3.99-2.22-7.66v-2.89l.03-3.03v-2.79c.01-3.44.04-6.88.07-10.32l.12-23.31h-48c.08 15.33.08 15.33.18 30.66.01 1.92.01 3.84.02 5.76l.03 3.03v2.89c0 .83.01 1.66.01 2.51-.24 2.15-.24 2.15-2.24 5.15-3.15.4-3.15.4-6.93.37l-3.78.03c-3.29-.4-3.29-.4-4.97-1.65-1.66-2.21-1.69-3.41-1.7-6.16-.01-.9-.02-1.8-.02-2.72.01-1.48.01-1.48.01-2.99 0-1.04-.01-2.08-.01-3.15-.01-3.44-.01-6.88 0-10.33v-7.16c-.01-5.01 0-10.01.01-15.02.02-6.43.01-12.85-.01-19.28-.01-4.93-.01-9.86 0-14.79 0-2.37 0-4.74-.01-7.11 0-3.31.01-6.62.02-9.93 0-.98-.01-1.97-.01-2.98 0-.9.01-1.8.02-2.73v-2.37c1.12-5.98 6.06-5.4 11.07-5.22ZM856.438 283.563c.92.01 1.85.01 2.8.02 6.59.15 12.05.94 17.76 4.42.64.36 1.27.71 1.92 1.08 1.71 1.04 1.71 1.04 4.08 2.92v2l3 1c1.42 1.67 1.42 1.67 2.75 3.75.45.67.9 1.35 1.36 2.04 1.12 2.78.7 4.37-.11 7.21-1.93.67-3.87 1.34-5.81 2l-3.27 1.12c-2.92.88-2.92.88-5.92.88-2.01-1.68-2.01-1.68-4.25-3.88-4.88-4.47-8.6-5.84-15.19-6.44-5.35.47-9.8 1.51-13.62 5.44-1.32 4.04-1.43 7.87.06 11.88 3.12 2.97 6.21 4.73 10.19 6.31 1.04.42 2.08.84 3.15 1.27 2.72 1.05 5.44 2.09 8.17 3.12.78.29 1.56.59 2.37.9 1.54.58 3.08 1.16 4.63 1.72 5.14 1.94 10.19 4.2 14.49 7.68v2c.62.22 1.24.45 1.88.68 2.74 1.7 3.17 3.31 4.12 6.32h2c4.26 8.34 4.45 18.76 2.35 27.82-2.21 5.45-6 10.25-10.35 14.18h-2v2c-7.05 3.63-13.04 5.83-21 6-.76.02-1.52.05-2.31.08-2.23.04-4.45-.01-6.69-.08-.68 0-1.36.01-2.07.02-8.74-.34-18.54-5.3-24.8-11.34-2.13-2.68-2.13-2.68-2.13-4.68h-2c-.87-1.41-1.72-2.83-2.56-4.25-.48-.79-.95-1.58-1.44-2.39-1-2.36-1-2.36-.8-4.56 1.39-3.12 3.7-3.6 6.8-4.8 3.32-.8 6.64-1.44 10-2 .53.68 1.06 1.37 1.61 2.08.71.9 1.41 1.8 2.14 2.73.7.89 1.39 1.79 2.11 2.71 4.54 5.26 9.41 7.16 16.14 8.48 6.71.21 12.43-2.31 17.94-5.94 3.23-4.8 2.98-9.46 2.06-15.06-4.25-7.54-12.08-10.55-20.06-12.82-5.42-1.56-10.34-3.62-15.38-6.12-.66-.32-1.32-.65-2-.98-5.68-2.9-11.2-6.49-14.56-12.08v-3h-2c-1.74-10.22-1.1-18.33 3-28h2l.82-1.94c1.18-2.06 1.18-2.06 4.18-3.06v-2c7.25-5.38 15.66-6.54 24.44-6.44ZM1076 285c2.77-.37 2.77-.37 6.35-.37.65-.01 1.3-.01 1.97-.01 2.15-.01 4.31 0 6.46.02h4.48c3.14 0 6.27.01 9.41.02 4.02.03 8.04.03 12.06.02 3.09 0 6.18 0 9.26.01 1.49.01 2.97.01 4.45.01 2.07 0 4.14.01 6.21.03 1.77 0 1.77 0 3.58.01 2.77.26 2.77.26 4.77 2.26.14 2.58.19 5.05.12 7.62 0 .71-.01 1.42-.02 2.15-.03 1.74-.06 3.49-.1 5.23-2.46 1.23-4.06 1.12-6.82 1.11h-3.03c-1.08 0-2.17-.01-3.28-.01-1.11 0-2.22-.01-3.36-.01-3.54 0-7.09-.01-10.63-.03-2.4 0-4.8-.01-7.2-.01-5.9-.01-11.79-.03-17.68-.05l1 27 6.75.18c2.14.07 4.29.13 6.44.19 1.5.05 2.99.09 4.49.13 2.15.05 4.29.12 6.44.18 1.29.04 2.59.08 3.92.11 2.96.21 2.96.21 3.96 1.21.1 2.51.14 4.99.12 7.5l.02 2.13c-.01 5.24-.01 5.24-1.14 6.37-2.38.09-4.72.12-7.1.1-1.06 0-1.06 0-2.15-.01-2.27 0-4.54-.01-6.81-.03-1.54 0-3.08-.01-4.61-.01-3.78-.01-7.55-.03-11.33-.05.01.6.01 1.19.02 1.81.07 6.2.11 12.39.14 18.59.02 2.31.04 4.63.07 6.94.03 3.32.05 6.64.06 9.96.02 1.04.03 2.08.05 3.16v2.91c.01.84.01 1.69.02 2.57-.12.68-.24 1.36-.36 2.06-3.6 2.4-5.3 2.24-9.56 2.19-1.16-.01-2.32-.02-3.51-.02C1077 398 1077 398 1075 397c-.93-2.79-1.13-4.48-1.13-7.36-.01-.9-.01-1.79-.02-2.71v-2.95c0-1.03 0-2.06-.01-3.12 0-3.41-.01-6.82-.01-10.24 0-2.36 0-4.73-.01-7.09 0-4.96-.01-9.92-.01-14.88 0-6.37-.01-12.73-.03-19.1-.01-4.88-.01-9.77-.01-14.65 0-2.35 0-4.7-.01-7.04-.01-3.28-.01-6.56 0-9.84-.01-.97-.01-1.95-.02-2.95 0-.89.01-1.79.01-2.71v-2.34c.25-2.02.25-2.02 2.25-5.02ZM1162.113 284.718c.71 0 1.42 0 2.15.01.75-.01 1.5-.01 2.27-.02 2.48-.01 4.96-.01 7.44-.01 1.71 0 3.43-.01 5.15-.01 3.61-.01 7.21-.01 10.82 0 4.62 0 9.25-.01 13.88-.04 3.55-.01 7.1-.01 10.65-.01 1.7 0 3.41-.01 5.12-.02 2.38-.01 4.76 0 7.14.01.71-.01 1.42-.02 2.15-.02 1.97.02 1.97.02 5.12.39 2.39 3.6 2.24 5.3 2.18 9.56 0 1.16-.01 2.32-.02 3.51-.16 2.93-.16 2.93-1.16 4.93-14.36.5-14.36.5-29 1-.02 2.74-.03 5.48-.05 8.31-.05 9.04-.11 18.09-.19 27.13-.04 5.49-.08 10.97-.11 16.46-.03 5.29-.07 10.58-.12 15.87l-.03 6.06c-.01 2.83-.04 5.65-.07 8.48v2.54c-.09 5.7-.09 5.7-1.75 7.87-2.75 2.09-5.44 1.6-8.81 1.53-1.26-.01-2.52-.03-3.82-.04-3.05-.21-3.05-.21-4.05-1.21-.13-2.89-.19-5.76-.21-8.65l-.03-2.75c-.03-3.01-.05-6.03-.08-9.04l-.06-6.25c-.06-5.5-.11-10.99-.16-16.49-.05-5.6-.1-11.2-.16-16.81-.1-11-.21-22-.3-33.01-.91-.02-1.81-.05-2.74-.07l-10.03-.3c-1.44-.04-2.89-.09-4.34-.13-2.08-.05-4.16-.12-6.23-.18-1.25-.04-2.51-.07-3.8-.11-2.86-.21-2.86-.21-3.86-1.21-.13-2.49-.19-4.94-.19-7.44-.01-.69-.03-1.38-.04-2.1 0-1.82.11-3.64.23-5.46 2.44-2.44 3.77-2.24 7.11-2.28ZM1031 285c2.59-.28 4.91-.37 7.5-.31.69-.01 1.38-.01 2.09-.01 5.14.05 5.14.05 7.41 2.32.25 1.92.25 1.92.26 4.32.01.91.01 1.81.02 2.75 0 1 0 2-.01 3.02l.02 3.18c.01 3.48.01 6.96.01 10.44 0 2.42.01 4.83.01 7.24.01 5.06.01 10.12.01 15.18-.01 6.49.01 12.99.03 19.48.01 4.98.02 9.97.01 14.95 0 2.39.01 4.79.02 7.18.01 3.35 0 6.69-.01 10.04.01 1.49.01 1.49.03 3.02l-.03 2.75v2.4c-.47 2.6-1.26 3.49-3.37 5.05-3.29.4-3.29.4-7.06.38l-3.79.02c-1.04-.13-2.08-.26-3.15-.4-2.09-3.14-2.25-3.84-2.25-7.4-.01-.9-.02-1.8-.02-2.73 0-.99.01-1.97.01-2.99 0-1.03-.01-2.07-.01-3.14-.01-3.45 0-6.89 0-10.33v-7.17c0-5 0-10.01.01-15.02.01-6.42 0-12.85-.01-19.28-.01-4.93 0-9.86 0-14.79v-7.11c-.01-3.31 0-6.62.01-9.92 0-.99-.01-1.97-.01-2.99 0-.9.01-1.8.02-2.73v-2.37c.25-2.03.25-2.03 2.25-5.03Z" fill="#0F0505"/></svg>