<svg xmlns="http://www.w3.org/2000/svg" width="1280" height="1280"><path d="M877.365-.13c.87 0 1.73 0 2.62-.01 2.87 0 5.74 0 8.61.01 1.99 0 3.97-.01 5.96-.01 4.17 0 8.34 0 12.51.01h16.06c4.11-.01 8.21-.01 12.32 0 1.97 0 3.95 0 5.92-.01 2.76 0 5.51 0 8.27.01 1.23 0 1.23 0 2.49-.01 5.65.03 5.65.03 7.87 1.14 2.45.18 4.87.33 7.32.44 9.36.5 18.53 1.61 27.6 4.06 2.66.64 5.33 1.06 8.02 1.5 5.08.82 10.07 1.79 15.06 3 .62.15 1.23.29 1.87.45 2.13.51 4.26 1.03 6.38 1.55.69.17 1.38.33 2.08.5 3.7.92 7.15 2.07 10.67 3.5 1.89.49 3.79.94 5.69 1.37 4.68 1.15 8.98 2.59 13.41 4.46 4.49 1.81 9.08 3.35 13.67 4.89 4.28 1.47 8.27 3.22 12.29 5.3 2.43 1.22 4.92 2.27 7.42 3.31 14.56 6.09 27.99 14.16 41.27 22.64 2.39 1.49 4.7 2.85 7.25 4.03v2c.69.24 1.37.47 2.08.72 3.53 1.54 6.59 3.58 9.74 5.78.59.4 1.19.81 1.81 1.22 1.5 1.04 2.94 2.15 4.37 3.28v2c.72.25 1.44.49 2.17.75 3.15 1.39 5.47 3.09 8.15 5.25 1.32 1.05 1.32 1.05 2.67 2.12 1 .93 1 .93 2.01 1.88v2c.54.22 1.08.44 1.64.67 3.16 1.77 5.63 4.16 8.24 6.64 3.04 2.86 6.08 5.68 9.31 8.32 2.26 1.9 4.12 3.68 6 5.93 2.18 2.57 4.4 5.09 6.71 7.55l1.52 1.64c1 1.07 2.01 2.14 3.03 3.21 3.55 3.82 3.55 3.82 3.55 6.04h2c1.82 2.09 3.52 4.18 5.19 6.37.5.65.99 1.29 1.5 1.95 1.45 1.89 2.88 3.78 4.31 5.68.66.87 1.32 1.73 2 2.63 11.51 15.74 19.02 34.34 23 53.37.19.8.37 1.6.55 2.42 1.61 7.46 2.51 15.02 3.45 22.58.26 1.68.26 1.68.52 3.4.74 5.97.65 11.97.65 17.98.01 1.28.01 2.57.01 3.89.01 2.72.01 5.43.01 8.14 0 3.44.01 6.87.03 10.3.01 3.33.01 6.65.02 9.98l.02 3.67c-.02 7.5-.66 14.75-1.78 22.16-.49 3.56-.73 7.08-.91 10.67-.81 13.52-3.3 26.88-5.87 40.16-.85 4.45-1.57 8.92-2.27 13.39-.43 2.26-.43 2.26-1.43 4.26-.12 1.28-.24 2.56-.37 3.87-.6 5.87-2.12 11.44-3.63 17.13-1.72 6.68-3.33 13.34-4.57 20.14-.43 1.86-.43 1.86-1.43 2.86-.23 1.94-.46 3.87-.68 5.81-.57 3.95-1.68 7.71-3.25 11.38-1.37 3.62-2.24 7.3-3.13 11.06-1.8 7.62-1.8 7.62-2.94 8.75-.1.97-.2 1.94-.31 2.94-.4 3.18-1.31 5.8-2.56 8.75-1.57 3.71-2.7 7.32-3.63 11.25-1.15 4.9-2.68 9.5-4.46 14.2-1.13 3.13-2.09 6.29-3.04 9.48-1.36 4.54-2.98 8.72-4.99 13-1.69 4.02-2.83 8.21-4.07 12.38-1.08 3.46-2.49 6.69-3.94 10-.97 2.94-1.92 5.88-2.84 8.84-.91 2.49-1.89 4.67-3.1 7.01-2.1 4.1-3.61 8.28-5.06 12.65-1.69 5.12-3.61 9.89-6.09 14.69-1.15 2.29-1.98 4.63-2.78 7.06-1.82 5.19-4.18 9.97-6.69 14.86-1.64 3.3-2.99 6.66-4.33 10.09-4.07 10.28-8.65 20.19-14 29.86-1.76 3.23-3.33 6.37-4.56 9.84-1.72 4.8-4.12 9.19-6.55 13.66-2.91 5.4-5.68 10.75-8 16.44h-2c-.16 1.1-.16 1.1-.33 2.21-.7 2.95-1.72 4.81-3.35 7.35-2.26 3.63-4.27 7.27-6.13 11.13-2.67 5.45-5.69 10.6-8.85 15.78-3.29 5.41-6.37 10.93-9.34 16.53 1.73.03 3.46.05 5.19.06l2.92.04c2.77-.1 5.19-.55 7.89-1.1 2.25-.17 4.5-.32 6.75-.44 4.88-.32 9.42-.89 14.15-2.09 3.06-.69 6.14-.95 9.26-1.22 1.94-.16 1.94-.16 3.84-1.25 7.8-1.67 15.8-2.56 23.69-3.63.98-.13 1.95-.27 2.95-.41 9.01-1.18 17.28-1.26 26.24.29.78.14 1.57.27 2.38.41 12.86 2.35 24.87 7.58 34.74 16.34v2h2c12.83 13.56 18.58 29.98 18.25 48.48-1.74 24.56-17.85 44.27-34.47 61.01-1.78 1.51-1.78 1.51-3.78 1.51v2c-1.32 1.26-1.32 1.26-3.19 2.69-.69.53-1.38 1.05-2.09 1.6-.75.56-1.5 1.13-2.28 1.71-.77.58-1.54 1.17-2.34 1.77-11.92 8.92-24.37 16.78-37.29 24.19-1.51.87-3.02 1.75-4.53 2.64-4.41 2.54-8.88 4.55-13.63 6.38-2.77 1.07-5.48 2.23-8.21 3.39-5.03 2.1-10.12 4.03-15.25 5.88-1.06.39-1.06.39-2.13.78-4.35 1.54-8.46 2.4-13.06 2.97-1.68.63-3.34 1.3-5 2-5.13 1.68-10.23 2.59-15.56 3.43-3.11.51-6.19 1.11-9.28 1.73-6.87 1.36-13.56 2.21-20.57 2.57-3.21.24-6.26.7-9.43 1.26-11.1 1.63-22.33 1.48-33.53 1.63l-6.89.12c-5.58.1-11.16.18-16.74.26-.32 4.39-.63 8.79-.93 13.19-.07 1-.07 1-.14 2.03-.69 9.98-1.14 19.96-1.43 29.97-.25 8.76-.72 17.41-1.76 26.12-.67 5.62-1 11.22-1.24 16.88-.48 11.3-1.67 22.35-4.07 33.42-.47 2.62-.64 5.17-.8 7.83-.45 6.2-1.7 12.12-3.04 18.19-1.37 6.25-2.54 12.52-3.55 18.85-.62 3.76-1.59 7-3.04 10.52-.53 2.32-1.03 4.66-1.5 7-.83 4.23-1.8 8.04-3.5 12-.46 1.59-.92 3.19-1.37 4.79-2.13 7.54-4.3 14.93-7.63 22.04-1.06 2.32-2 4.67-2.93 7.04-2.16 5.47-4.59 10.8-7.07 16.13h-2c-.1.71-.2 1.42-.3 2.15-1.34 5.47-4.77 10.08-7.7 14.85l-1.94 3.23c-3.56 5.76-3.56 5.76-5.06 7.77h-2c-.21.69-.43 1.38-.66 2.09-1.69 3.69-4.11 6.51-6.77 9.53-.53.61-1.06 1.22-1.61 1.85-6.72 7.65-13.77 15.44-21.96 21.53h-2v2c-1.42 1.29-1.42 1.29-3.31 2.62-.92.67-.92.67-1.86 1.36-1.83 1.02-1.83 1.02-4.83 1.02v2c-1.58 1.16-1.58 1.16-3.8 2.43-.81.46-1.61.92-2.44 1.4l-2.63 1.48-2.66 1.51c-10.54 5.96-21.19 10.82-32.47 15.18-.79.31-1.59.62-2.42.94-6.72 2.57-13.48 4.86-20.49 6.53-2.35.6-4.65 1.31-6.96 2.03-4.11 1.25-8.2 2.18-12.43 2.96-3.09.62-6.13 1.36-9.2 2.1-4.86 1.15-9.58 1.89-14.57 2.23-2.01.11-2.01.11-3.93 1.21-1.69.09-3.38.13-5.07.13-1.06 0-2.12.01-3.21.01-1.14 0-2.29-.01-3.47-.01-1.76 0-1.76 0-3.55.01-2.48 0-4.96-.01-7.44-.01-3.81-.01-7.62 0-11.43.01-2.4 0-4.8-.01-7.2-.01-1.73.01-1.73.01-3.48.01-1.06 0-2.11-.01-3.2-.01h-2.83c-2.12-.13-2.12-.13-3.12-1.13-1.26-.11-2.53-.23-3.84-.34-5.82-.6-11.13-2.3-16.66-4.16-1.04-.35-2.09-.7-3.17-1.06-9.33-3.24-17.83-7.44-26.33-12.44-.97-.54-1.95-1.08-2.95-1.64-.68-.45-1.35-.9-2.05-1.36v-2c-.53-.25-1.07-.5-1.62-.75-2.96-1.56-5.67-3.28-8.38-5.25v-2c-.54-.22-1.09-.45-1.66-.68-7.46-4.22-14.98-12.98-19.34-20.32v-2h-2c-.8-1.42-.8-1.42-1.62-2.88-1.73-3.02-3.51-6.01-5.31-9-1.03-1.7-2.05-3.41-3.07-5.12-.44-.74-.89-1.49-1.35-2.25-2.83-4.87-4.85-9.75-6.68-15.06-.89-2.48-1.91-4.81-3.03-7.19-1.91-4.16-3.02-8.37-4.15-12.8-.98-3.39-2.39-6.46-3.88-9.65-1.3-2.94-2.08-5.96-2.91-9.05-.49-1.46-.99-2.92-1.5-4.38-1.24-3.69-2.17-7.36-2.96-11.18-.62-2.81-1.36-5.59-2.1-8.38-1.16-4.59-1.82-9-2.19-13.71-.24-2.27-.65-4.38-1.18-6.6-2.26-9.64-3.19-19.37-3.67-29.24-.25-4.88-.75-9.67-1.4-14.51-1.09-8.37-1.4-16.75-1.65-25.18-.04-1.02-.07-2.03-.1-3.07-.02-.89-.05-1.78-.07-2.7-.14-2.45-.38-4.83-.67-7.27-.58-5.02-.71-10-.79-15.05-.01-.97-.03-1.93-.05-2.92-.06-3.06-.11-6.12-.17-9.19-.24-14.22-.64-28.41-1.5-42.62-.94.36-1.89.73-2.87 1.1-2.27.87-4.53 1.74-6.79 2.61-1.91.74-3.81 1.5-5.69 2.32-3.86 1.41-7.82 2.19-11.83 3.03-1.62.34-3.24.69-4.86 1.04-.71.15-1.42.3-2.16.45-1.88.4-1.88.4-3.8 1.45-1.91.37-3.82.69-5.75 1-1.02.16-2.05.33-3.1.5-1.04.16-2.08.33-3.15.5-.95.17-1.9.35-2.88.53-21.17 3.21-47.02 3.83-67.92-1.07-2.31-.48-4.53-.67-6.88-.84-5.69-.49-11.05-2.05-16.52-3.59-3.42-.93-6.83-1.69-10.3-2.41-14.45-3.27-27.69-10.35-40.5-17.62v-2h-3v-2c-.72-.25-1.44-.5-2.18-.75-3.09-1.37-5.33-2.97-7.82-5.25v-2h-2c-1.62-1.38-1.62-1.38-3-3v-2c-4.92.45-6.66 1.47-10 5-1.63.98-3.28 1.96-4.96 2.87-2.31 1.28-4.54 2.67-6.79 4.07-8.77 5.24-17.62 8.65-27.47 11.26-2.66.52-2.66.52-3.78 1.8-29.89 6.51-59.74-.27-85.43-16.31-11.84-7.71-11.84-7.71-16.57-11.69v-2c-.57-.27-1.15-.54-1.75-.81-2.3-1.22-4.27-2.49-6.25-4.19v-2h-2c-1.62-1.38-1.62-1.38-3-3v-2h-2c-1.34-1.29-1.34-1.29-2.93-3.19-.61-.72-1.22-1.44-1.85-2.19-.73-.86-1.46-1.73-2.22-2.62-.94-1.09-1.88-2.17-2.83-3.25-.99-1.15-1.99-2.29-2.98-3.44-.48-.54-.96-1.09-1.45-1.65-2.63-3.07-4.5-5.8-5.74-9.66h-2c-3-4.39-3-4.39-3-7h-2c-1.58-2.2-1.58-2.2-3.37-5.13-1.96-3.17-3.91-6.32-6.06-9.37-1.57-2.5-1.57-2.5-1.57-5.5h-2l-1.13-2.34c-.51-1.05-1.03-2.09-1.55-3.16-.5-1.02-1-2.04-1.51-3.09-1.72-3.24-3.59-6.29-5.54-9.37-1.99-3.21-3.76-6.52-5.52-9.85-.57-1.09-.57-1.09-1.15-2.19-3.72-7.11-7.13-14.35-10.52-21.61-1.72-3.67-3.53-7.29-5.39-10.89-2.31-4.56-4.09-9.17-5.76-14-.81-2.18-1.71-4.14-2.8-6.19-2.75-5.25-4.64-10.87-6.69-16.43-1.09-2.97-2.23-5.9-3.44-8.82-2.11-5.2-3.93-10.5-5.78-15.81-1.38-3.94-2.81-7.83-4.4-11.69-1.63-3.96-2.85-7.96-4.04-12.07-.78-2.5-1.71-4.88-2.71-7.3-2.02-4.9-3.55-9.89-5.06-14.96-.93-2.98-1.96-5.88-3.07-8.79-1.42-3.8-2.5-7.56-3.44-11.5-1.11-4.69-2.59-8.99-4.53-13.39-1.3-3.44-2.12-6.98-2.97-10.55-.48-1.98-.96-3.97-1.45-5.95l-.96-3.96c-1.06-4.33-2.36-8.52-3.79-12.74-1.39-4.13-2.66-8.3-3.92-12.48-.26-.85-.53-1.7-.8-2.59-1.44-4.77-2.39-9.33-3.08-14.28-.64-1.67-1.31-3.34-2-5-.81-3.53-1.51-7.07-2.21-10.63-.69-2.98-1.58-5.57-2.79-8.37-1.19-3.71-2.08-7.26-2.5-11.13-.3-3.68-.3-3.68-1.44-6.18-1.25-3.18-1.82-6.26-2.43-9.63-1.21-6.41-2.87-12.6-4.72-18.86-1-3.52-1.74-7.04-2.41-10.64-.59-3.04-1.29-6.05-2-9.06-1.08-4.62-2.06-9.25-2.96-13.91-.62-3.01-1.33-5.98-2.04-8.97-1.44-6.17-2.52-12.36-3.5-18.62-.35-2.21-.7-4.42-1.06-6.63-.15-.98-.31-1.96-.47-2.97-.35-2.4-.35-2.4-1.47-4.4-.27-2.1-.44-4.21-.62-6.32-.4-2.88-1.13-5.61-1.86-8.42-.96-4.19-1.46-8.44-2.02-12.7-.78-5.92-1.68-11.73-3.04-17.55-1.93-8.47-2.71-17.05-3.11-25.72-.23-3.75-.8-7.43-1.35-11.15-1.06-7.57-1.27-15.03-1.23-22.68.01-1.33.01-2.67.01-4 0-2.77.01-5.54.02-8.31.02-3.51.02-7.02.02-10.53 0-2.74 0-5.49.01-8.24.01-1.91.01-3.82.01-5.73.11-20.82.11-20.82 2.16-28.65.18-2.67.33-5.33.44-8 .44-8.56 1.44-16.88 3.63-25.19.69-2.8 1.12-5.17 1.37-8 1.52-15.77 1.52-15.77 4.56-18.81.15-1.03.29-2.06.44-3.13.96-6.6 3.18-12.61 5.49-18.83 1.14-3.24 2.11-6.5 3.07-9.79 1.08-3.58 2.12-6.81 4.07-10 1.58-2.65 2.39-4.46 3.24-7.32 1.72-5.3 4.14-10.09 6.76-14.99.48-.92.97-1.83 1.47-2.77 5.99-11.18 12.69-21.79 19.96-32.17.43-.61.85-1.21 1.28-1.84 1.02-1.42 2.12-2.8 3.22-4.16h2l2-5h2c.29-.6.58-1.2.88-1.81 1.12-2.19 1.12-2.19 3.12-5.19h2c.24-.56.48-1.12.72-1.7 1.57-2.82 3.5-4.78 5.78-7.05 1.2-1.2 1.2-1.2 2.41-2.42 2.09-1.83 2.09-1.83 4.09-1.83v-2c1.47-1.51 1.47-1.51 3.38-3.13.63-.53 1.25-1.07 1.9-1.63 1.72-1.24 1.72-1.24 3.72-1.24v-2c1.74-1.45 3.54-2.81 5.38-4.13 1-.72 2-1.44 3.02-2.19 2.6-1.68 2.6-1.68 4.6-1.68v-2c2.09-1.52 2.09-1.52 4.94-3.25 4.44-2.74 8.79-5.55 13.09-8.49 3.17-2.02 5.16-3.26 8.97-3.26v-2c16.2-8.37 16.2-8.37 24.28-11.02 2.39-.86 4.63-1.84 6.94-2.9 4.7-2.12 9.46-3.65 14.41-5.08.87-.26 1.73-.51 2.62-.77 7.55-2.21 15.14-4.26 22.75-6.23.74-.2 1.48-.41 2.25-.62 5.49-1.48 11.07-2.28 16.69-3.08 2.26-.33 4.52-.69 6.78-1.06 15.39-2.39 30.72-2.98 46.28-3.24.9-.02 1.79-.03 2.71-.05 25.48-.42 51.69-.32 76.75 4.62 2.73.46 5.41.68 8.17.87 5.23.38 10.34 1.15 15.5 2.06.75.13 1.49.26 2.26.4 5.35.97 5.35.97 7.61 2.1 1.22.1 2.44.21 3.69.31 4.95.5 9.58 1.76 14.36 3.1 5.82 1.61 11.68 2.78 17.61 3.88 3.23.68 6.23 1.65 9.34 2.71 2.34.34 4.67.67 7 1 6.21 1.58 6.21 1.58 9 3.06 2.13 1.12 2.13 1.12 5.19 1.38 3.6.53 6.59 1.4 10 2.6 4.46 1.52 8.98 2.88 13.49 4.25 5.22 1.6 5.22 1.6 6.32 2.71 4.69.63 7.71-1.24 11.57-3.63 1.24-.73 2.49-1.47 3.74-2.21.62-.36 1.24-.73 1.88-1.11 7.1-4.11 14.4-7.43 22.14-10.11 5.15-1.81 10.19-3.91 15.23-6 2.72-1.05 5.47-1.71 8.3-2.38 2.13-.56 4.16-1.25 6.23-1.99 5.2-1.76 10.45-2.75 15.85-3.7 1.87-.33 3.73-.66 5.59-1 .81-.15 1.63-.29 2.46-.44 2.07-.36 2.07-.36 4.01-1.43 1.67-.18 3.34-.32 5-.44 3.64-.29 7.08-.74 10.63-1.56 5.38-1.17 10.74-1.42 16.22-1.66 3.16-.14 6.19-.35 9.31-.85 5.86-.75 11.69-.73 17.59-.74 1.01 0 1.01 0 2.04-.01 13.19-.01 26.31.76 39.46 1.7.96.06 1.92.13 2.9.2 2.73.2 5.46.4 8.18.61l2.48.18c3.51.28 6.79.72 10.19 1.57 2.34.18 4.67.32 7 .44 6.78.39 13.33 1.38 20 2.56 6.32 1.09 10.79 1.15 16.8-1.18 2.19-.81 4.29-1.35 6.58-1.82 3.4-.71 6.72-1.56 10.06-2.5 8.53-2.36 17.12-3.79 25.88-5.04 2.65-.32 2.65-.32 4.68-1.46 1.52-.18 3.04-.32 4.57-.44 3.32-.3 6.5-.73 9.75-1.5 9.63-2.25 19.26-3.3 29.12-3.72 5.49-.25 10.34-1.48 15.93-1.47Z" fill="#F9FCFE"/><path d="M662.813 82.688c.88 0 1.77 0 2.68.01 42.26.14 82.73 8.26 122.51 22.3l2.07.73c13.56 4.86 26.41 11.31 39.02 18.23 1.91 1.04 3.82 2.07 5.74 3.09 15.54 8.42 29.95 18.58 43.64 29.72 1.43 1.15 2.87 2.29 4.3 3.42 16.46 13.13 32.91 28.29 45.91 44.87 1.8 2.28 3.63 4.51 5.51 6.73 8.12 9.59 15.4 19.53 22.34 30 1.34 2.02 2.7 4.02 4.08 6.01 7.12 10.35 13.31 21.21 19.39 32.2.44.79.87 1.58 1.33 2.39 5.36 9.71 10.15 19.61 14.67 29.74.47 1.04.94 2.08 1.42 3.16 2.57 5.87 4.42 11.4 5.58 17.71-.92-.07-1.83-.14-2.77-.22-41.86-3.03-86.59-.67-120.23 27.22-17.06 16.02-26.27 40.86-27 64l-.16 3.83c-1.24 44.47 14.98 89.28 32.9 129.36 1.23 2.74 2.43 5.49 3.62 8.25 4.46 10.16 9.38 19.98 14.66 29.73 1.36 2.54 2.64 5.12 3.91 7.71 6.45 12.99 13.35 25.72 20.42 38.38 7.5 13.44 14.89 26.91 21.65 40.74 11.5 23.5 25.24 44.6 42.18 64.58 1.81 2.41 2.84 4.58 3.82 7.42-1.11.44-2.22.87-3.37 1.32-19.26 7.67-32.12 16.26-41.28 35.51-6.05 14.23-7.16 29.1-7.65 44.38-.44 13.32-1.63 26.49-3.14 39.73l-.78 7.01c-6.46 57.44-13.76 114.81-21.78 172.05-.15 1.06-.3 2.11-.45 3.2-9.29 66-9.29 66-23.55 90.8-.49.87-.98 1.73-1.48 2.62-18.02 30.15-48.9 44.13-81.58 52.66-33.79 8.32-67.72 11.93-98.69-6.53-20.35-13.67-33.02-34.09-41.25-56.75-.56-1.39-1.13-2.79-1.69-4.19-23.6-64.99-14.59-149.96-14.56-218.28v-6.44c0-8.27.01-16.54.03-24.81.01-2.54.02-5.08.02-7.62.03-16.52.46-32.96 1.42-49.45.93-17.92-7.61-37.55-19.16-50.97l-2.06-2.24c-.72-.79-1.45-1.58-2.19-2.39-9.91-10.38-23.12-18.15-37.88-18.68-2.42-.03-4.83-.01-7.24.01-1.26.01-1.26.01-2.54.01-2.05.02-4.1.03-6.15.05-1.64-3.27.16-6.37 1.25-9.69.26-.82.53-1.64.8-2.48 8.57-26.18 18.11-51.93 29.95-76.83 15.61-32.86 23.64-67.9 27-104 .07-.76.14-1.53.22-2.32.4-4.55.65-9.11.78-13.68l.06-2.37c.8-34.72-2.94-69.34-8.87-103.5-.17-.94-.33-1.89-.49-2.86-1.78-10.34-3.87-20.51-6.73-30.62-.23-.84-.47-1.69-.72-2.56-6.57-22.35-21.18-43.39-41.6-54.99-3.18-1.52-6.36-2.85-9.65-4.1-.99-.37-1.98-.75-3-1.14-43.36-14.82-94.03-.92-133.77 18.43-2.69 1.33-5.36 2.7-8.02 4.08-2.7 1.37-5.38 2.57-8.21 3.63-1.49-2.98-.92-5.91-.7-9.15.07-1.08.07-1.08.15-2.17.54-7.44 1.53-14.81 2.67-22.18.16-1.05.16-1.05.33-2.11 3.91-25.31 9.77-49.98 17.55-74.39.3-.96.61-1.93.92-2.92 5.62-17.75 12.45-34.59 21.08-51.08.91-1.75.91-1.75 1.85-3.54 1.69-3.17 3.4-6.32 5.15-9.46.44-.8.89-1.6 1.35-2.43 7.67-13.28 16.98-25.55 27.21-36.96 1.38-1.55 2.75-3.11 4.11-4.69 21.6-24.41 49.81-41.94 80.33-52.92 1.15-.41 1.15-.41 2.33-.84 9.56-3.39 19.23-5.87 29.17-7.91.96-.2 1.92-.4 2.9-.6 16.04-3.11 32.11-4.03 48.41-3.96Z" fill="#34668E"/><path d="M308.313 85.813h3.26c15.24.03 30.3.18 45.43 2.19 1.83.23 1.83.23 3.7.47 32.27 4.17 64.03 10.5 95.3 19.53l3.41.97c3.14.9 6.27 1.83 9.4 2.78.93.27 1.85.54 2.81.81.83.27 1.66.53 2.52.8.73.22 1.45.44 2.2.67 1.66.97 1.66.97 2.48 2.96.18 2.01.18 2.01-1.16 3.76-.67.6-1.34 1.2-2.04 1.81-10.7 10.12-19 22.56-27.62 34.44-.48.64-.95 1.29-1.44 1.95-2.37 3.27-4.5 6.53-6.37 10.11-2.22 4.17-4.55 8.25-6.94 12.31-44.23 76.5-56.77 172.33-52.25 259.06 2.27 43.71 1.31 87.01-3.85 130.47-5.98 50.48 2.23 101.82 34.02 142.91 7.24 9.05 15.05 17.84 23.59 25.69 1.55 1.88 1.97 3.07 2.24 5.5-1.2 1.84-1.2 1.84-3.05 3.72-.68.7-1.35 1.4-2.05 2.12-1.09 1.1-1.09 1.1-2.21 2.22-1.49 1.53-2.97 3.06-4.46 4.59l-2.2 2.26c-5.93 6.11-11.55 12.51-17.13 18.94-1.92 2.17-3.88 4.3-5.85 6.42-3.99 4.31-7.87 8.65-11.55 13.23-4.05 5.02-8.33 9.76-12.73 14.48-5.83 6.3-11.34 12.86-16.77 19.52-4.06 4.97-8.16 9.87-12.41 14.68-1.61 1.84-3.2 3.7-4.78 5.57-22.39 25.32-22.39 25.32-37.89 26.72-16.76.79-27.89-5.05-40.19-16.06-1.59-1.46-3.16-2.93-4.73-4.41l-2.19-1.95c-14.11-13.11-25.43-31.29-34.32-48.25-1.41-2.65-2.92-5.24-4.45-7.84-13.32-22.91-23.46-48.03-33.17-72.65-.32-.81-.64-1.62-.97-2.46-6.84-17.38-13.15-34.92-19.14-52.61-.74-2.19-1.49-4.37-2.23-6.56-30.26-89.09-52.73-182.3-68.41-281.62-.28-1.86-.28-1.86-.58-3.76-2.77-18.75-3.92-37.17-3.85-56.11v-3.39c.04-18.11.78-35.85 3.31-53.8.14-1.07.29-2.13.44-3.23 2.76-19.83 7.71-38.84 14.18-57.77l1.13-3.31c1.98-5.63 4.17-10.6 7.25-15.69.67-1.67 1.34-3.33 2-5 4.66-8.87 9.89-17.06 16-25 .81-1.13.81-1.13 1.65-2.27 11.61-15.43 26.22-28.24 42.35-38.73.57-.39 1.15-.77 1.74-1.16 37.03-24.3 85.4-30.08 128.57-30.03Z" fill="#34668E"/><path d="M877.365-.13c.87 0 1.73 0 2.62-.01 2.87 0 5.74 0 8.61.01 1.99 0 3.97-.01 5.96-.01 4.17 0 8.34 0 12.51.01h16.06c4.11-.01 8.21-.01 12.32 0 1.97 0 3.95 0 5.92-.01 2.76 0 5.51 0 8.27.01 1.23 0 1.23 0 2.49-.01 5.65.03 5.65.03 7.87 1.14 2.45.18 4.87.33 7.32.44 9.36.5 18.53 1.61 27.6 4.06 2.66.64 5.33 1.06 8.02 1.5 5.08.82 10.07 1.79 15.06 3 .62.15 1.23.29 1.87.45 2.13.51 4.26 1.03 6.38 1.55.69.17 1.38.33 2.08.5 3.7.92 7.15 2.07 10.67 3.5 1.89.49 3.79.94 5.69 1.37 4.68 1.15 8.98 2.59 13.41 4.46 4.49 1.81 9.08 3.35 13.67 4.89 4.28 1.47 8.27 3.22 12.29 5.3 2.43 1.22 4.92 2.27 7.42 3.31 14.56 6.09 27.99 14.16 41.27 22.64 2.39 1.49 4.7 2.85 7.25 4.03v2c.69.24 1.37.47 2.08.72 3.53 1.54 6.59 3.58 9.74 5.78.59.4 1.19.81 1.81 1.22 1.5 1.04 2.94 2.15 4.37 3.28v2c.72.25 1.44.49 2.17.75 3.15 1.39 5.47 3.09 8.15 5.25 1.32 1.05 1.32 1.05 2.67 2.12 1 .93 1 .93 2.01 1.88v2c.54.22 1.08.44 1.64.67 3.16 1.77 5.63 4.16 8.24 6.64 3.04 2.86 6.08 5.68 9.31 8.32 2.26 1.9 4.12 3.68 6 5.93 2.18 2.57 4.4 5.09 6.71 7.55l1.52 1.64c1 1.07 2.01 2.14 3.03 3.21 3.55 3.82 3.55 3.82 3.55 6.04h2c1.82 2.09 3.52 4.18 5.19 6.37.5.65.99 1.29 1.5 1.95 1.45 1.89 2.88 3.78 4.31 5.68.66.87 1.32 1.73 2 2.63 11.51 15.74 19.02 34.34 23 53.37.19.8.37 1.6.55 2.42 1.61 7.46 2.51 15.02 3.45 22.58.26 1.68.26 1.68.52 3.4.74 5.97.65 11.97.65 17.98.01 1.28.01 2.57.01 3.89.01 2.72.01 5.43.01 8.14 0 3.44.01 6.87.03 10.3.01 3.33.01 6.65.02 9.98l.02 3.67c-.02 7.5-.66 14.75-1.78 22.16-.49 3.56-.73 7.08-.91 10.67-.81 13.52-3.3 26.88-5.87 40.16-.85 4.45-1.57 8.92-2.27 13.39-.43 2.26-.43 2.26-1.43 4.26-.12 1.28-.24 2.56-.37 3.87-.6 5.87-2.12 11.44-3.63 17.13-1.72 6.68-3.33 13.34-4.57 20.14-.43 1.86-.43 1.86-1.43 2.86-.23 1.94-.46 3.87-.68 5.81-.57 3.95-1.68 7.71-3.25 11.38-1.37 3.62-2.24 7.3-3.13 11.06-1.8 7.62-1.8 7.62-2.94 8.75-.1.97-.2 1.94-.31 2.94-.4 3.18-1.31 5.8-2.56 8.75-1.57 3.71-2.7 7.32-3.63 11.25-1.15 4.9-2.68 9.5-4.46 14.2-1.13 3.13-2.09 6.29-3.04 9.48-1.36 4.54-2.98 8.72-4.99 13-1.69 4.02-2.83 8.21-4.07 12.38-1.08 3.46-2.49 6.69-3.94 10-.97 2.94-1.92 5.88-2.84 8.84-.91 2.49-1.89 4.67-3.1 7.01-2.1 4.1-3.61 8.28-5.06 12.65-1.69 5.12-3.61 9.89-6.09 14.69-1.15 2.29-1.98 4.63-2.78 7.06-1.82 5.19-4.18 9.97-6.69 14.86-1.64 3.3-2.99 6.66-4.33 10.09-4.07 10.28-8.65 20.19-14 29.86-1.76 3.23-3.33 6.37-4.56 9.84-1.72 4.8-4.12 9.19-6.55 13.66-2.91 5.4-5.68 10.75-8 16.44h-2c-.16 1.1-.16 1.1-.33 2.21-.7 2.95-1.72 4.81-3.35 7.35-2.26 3.63-4.27 7.27-6.13 11.13-2.67 5.45-5.69 10.6-8.85 15.78-3.29 5.41-6.37 10.93-9.34 16.53 1.73.03 3.46.05 5.19.06l2.92.04c2.77-.1 5.19-.55 7.89-1.1 2.25-.17 4.5-.32 6.75-.44 4.88-.32 9.42-.89 14.15-2.09 3.06-.69 6.14-.95 9.26-1.22 1.94-.16 1.94-.16 3.84-1.25 7.8-1.67 15.8-2.56 23.69-3.63.98-.13 1.95-.27 2.95-.41 9.01-1.18 17.28-1.26 26.24.29.78.14 1.57.27 2.38.41 12.86 2.35 24.87 7.58 34.74 16.34v2h2c12.83 13.56 18.58 29.98 18.25 48.48-1.74 24.56-17.85 44.27-34.47 61.01-1.78 1.51-1.78 1.51-3.78 1.51v2c-1.32 1.26-1.32 1.26-3.19 2.69-.69.53-1.38 1.05-2.09 1.6-.75.56-1.5 1.13-2.28 1.71-.77.58-1.54 1.17-2.34 1.77-11.92 8.92-24.37 16.78-37.29 24.19-1.51.87-3.02 1.75-4.53 2.64-4.41 2.54-8.88 4.55-13.63 6.38-2.77 1.07-5.48 2.23-8.21 3.39-5.03 2.1-10.12 4.03-15.25 5.88-1.06.39-1.06.39-2.13.78-4.35 1.54-8.46 2.4-13.06 2.97-1.68.63-3.34 1.3-5 2-5.13 1.68-10.23 2.59-15.56 3.43-3.11.51-6.19 1.11-9.28 1.73-6.87 1.36-13.56 2.21-20.57 2.57-3.21.24-6.26.7-9.43 1.26-11.1 1.63-22.33 1.48-33.53 1.63l-6.89.12c-5.58.1-11.16.18-16.74.26-.32 4.39-.63 8.79-.93 13.19-.07 1-.07 1-.14 2.03-.69 9.98-1.14 19.96-1.43 29.97-.25 8.76-.72 17.41-1.76 26.12-.67 5.62-1 11.22-1.24 16.88-.48 11.3-1.67 22.35-4.07 33.42-.47 2.62-.64 5.17-.8 7.83-.45 6.2-1.7 12.12-3.04 18.19-1.37 6.25-2.54 12.52-3.55 18.85-.62 3.76-1.59 7-3.04 10.52-.53 2.32-1.03 4.66-1.5 7-.83 4.23-1.8 8.04-3.5 12-.46 1.59-.92 3.19-1.37 4.79-2.13 7.54-4.3 14.93-7.63 22.04-1.06 2.32-2 4.67-2.93 7.04-2.16 5.47-4.59 10.8-7.07 16.13h-2c-.1.71-.2 1.42-.3 2.15-1.34 5.47-4.77 10.08-7.7 14.85l-1.94 3.23c-3.56 5.76-3.56 5.76-5.06 7.77h-2c-.21.69-.43 1.38-.66 2.09-1.69 3.69-4.11 6.51-6.77 9.53-.53.61-1.06 1.22-1.61 1.85-6.72 7.65-13.77 15.44-21.96 21.53h-2v2c-1.42 1.29-1.42 1.29-3.31 2.62-.92.67-.92.67-1.86 1.36-1.83 1.02-1.83 1.02-4.83 1.02v2c-1.58 1.16-1.58 1.16-3.8 2.43-.81.46-1.61.92-2.44 1.4l-2.63 1.48-2.66 1.51c-10.54 5.96-21.19 10.82-32.47 15.18-.79.31-1.59.62-2.42.94-6.72 2.57-13.48 4.86-20.49 6.53-2.35.6-4.65 1.31-6.96 2.03-4.11 1.25-8.2 2.18-12.43 2.96-3.09.62-6.13 1.36-9.2 2.1-4.86 1.15-9.58 1.89-14.57 2.23-2.01.11-2.01.11-3.93 1.21-1.69.09-3.38.13-5.07.13-1.06 0-2.12.01-3.21.01-1.14 0-2.29-.01-3.47-.01-1.76 0-1.76 0-3.55.01-2.48 0-4.96-.01-7.44-.01-3.81-.01-7.62 0-11.43.01-2.4 0-4.8-.01-7.2-.01-1.73.01-1.73.01-3.48.01-1.06 0-2.11-.01-3.2-.01h-2.83c-2.12-.13-2.12-.13-3.12-1.13-1.26-.11-2.53-.23-3.84-.34-5.82-.6-11.13-2.3-16.66-4.16-1.04-.35-2.09-.7-3.17-1.06-9.33-3.24-17.83-7.44-26.33-12.44-.97-.54-1.95-1.08-2.95-1.64-.68-.45-1.35-.9-2.05-1.36v-2c-.53-.25-1.07-.5-1.62-.75-2.96-1.56-5.67-3.28-8.38-5.25v-2c-.54-.22-1.09-.45-1.66-.68-7.46-4.22-14.98-12.98-19.34-20.32v-2h-2c-.8-1.42-.8-1.42-1.62-2.88-1.73-3.02-3.51-6.01-5.31-9-1.03-1.7-2.05-3.41-3.07-5.12-.44-.74-.89-1.49-1.35-2.25-2.83-4.87-4.85-9.75-6.68-15.06-.89-2.48-1.91-4.81-3.03-7.19-1.91-4.16-3.02-8.37-4.15-12.8-.98-3.39-2.39-6.46-3.88-9.65-1.3-2.94-2.08-5.96-2.91-9.05-.49-1.46-.99-2.92-1.5-4.38-1.24-3.69-2.17-7.36-2.96-11.18-.62-2.81-1.36-5.59-2.1-8.38-1.16-4.59-1.82-9-2.19-13.71-.24-2.27-.65-4.38-1.18-6.6-2.26-9.64-3.19-19.37-3.67-29.24-.25-4.88-.75-9.67-1.4-14.51-1.09-8.37-1.4-16.75-1.65-25.18-.04-1.02-.07-2.03-.1-3.07-.02-.89-.05-1.78-.07-2.7-.14-2.45-.38-4.83-.67-7.27-.58-5.02-.71-10-.79-15.05-.01-.97-.03-1.93-.05-2.92-.06-3.06-.11-6.12-.17-9.19-.24-14.22-.64-28.41-1.5-42.62-.94.36-1.89.73-2.87 1.1-2.27.87-4.53 1.74-6.79 2.61-1.91.74-3.81 1.5-5.69 2.32-3.86 1.41-7.82 2.19-11.83 3.03-1.62.34-3.24.69-4.86 1.04-.71.15-1.42.3-2.16.45-1.88.4-1.88.4-3.8 1.45-1.91.37-3.82.69-5.75 1-1.02.16-2.05.33-3.1.5-1.04.16-2.08.33-3.15.5-.95.17-1.9.35-2.88.53-21.17 3.21-47.02 3.83-67.92-1.07-2.31-.48-4.53-.67-6.88-.84-5.69-.49-11.05-2.05-16.52-3.59-3.42-.93-6.83-1.69-10.3-2.41-14.45-3.27-27.69-10.35-40.5-17.62v-2h-3v-2c-.72-.25-1.44-.5-2.18-.75-3.09-1.37-5.33-2.97-7.82-5.25v-2h-2c-1.62-1.38-1.62-1.38-3-3v-2c-4.92.45-6.66 1.47-10 5-1.63.98-3.28 1.96-4.96 2.87-2.31 1.28-4.54 2.67-6.79 4.07-8.77 5.24-17.62 8.65-27.47 11.26-2.66.52-2.66.52-3.78 1.8-29.89 6.51-59.74-.27-85.43-16.31-11.84-7.71-11.84-7.71-16.57-11.69v-2c-.57-.27-1.15-.54-1.75-.81-2.3-1.22-4.27-2.49-6.25-4.19v-2h-2c-1.62-1.38-1.62-1.38-3-3v-2h-2c-1.34-1.29-1.34-1.29-2.93-3.19-.61-.72-1.22-1.44-1.85-2.19-.73-.86-1.46-1.73-2.22-2.62-.94-1.09-1.88-2.17-2.83-3.25-.99-1.15-1.99-2.29-2.98-3.44-.48-.54-.96-1.09-1.45-1.65-2.63-3.07-4.5-5.8-5.74-9.66h-2c-3-4.39-3-4.39-3-7h-2c-1.58-2.2-1.58-2.2-3.37-5.13-1.96-3.17-3.91-6.32-6.06-9.37-1.57-2.5-1.57-2.5-1.57-5.5h-2l-1.13-2.34c-.51-1.05-1.03-2.09-1.55-3.16-.5-1.02-1-2.04-1.51-3.09-1.72-3.24-3.59-6.29-5.54-9.37-1.99-3.21-3.76-6.52-5.52-9.85-.57-1.09-.57-1.09-1.15-2.19-3.72-7.11-7.13-14.35-10.52-21.61-1.72-3.67-3.53-7.29-5.39-10.89-2.31-4.56-4.09-9.17-5.76-14-.81-2.18-1.71-4.14-2.8-6.19-2.75-5.25-4.64-10.87-6.69-16.43-1.09-2.97-2.23-5.9-3.44-8.82-2.11-5.2-3.93-10.5-5.78-15.81-1.38-3.94-2.81-7.83-4.4-11.69-1.63-3.96-2.85-7.96-4.04-12.07-.78-2.5-1.71-4.88-2.71-7.3-2.02-4.9-3.55-9.89-5.06-14.96-.93-2.98-1.96-5.88-3.07-8.79-1.42-3.8-2.5-7.56-3.44-11.5-1.11-4.69-2.59-8.99-4.53-13.39-1.3-3.44-2.12-6.98-2.97-10.55-.48-1.98-.96-3.97-1.45-5.95l-.96-3.96c-1.06-4.33-2.36-8.52-3.79-12.74-1.39-4.13-2.66-8.3-3.92-12.48-.26-.85-.53-1.7-.8-2.59-1.44-4.77-2.39-9.33-3.08-14.28-.64-1.67-1.31-3.34-2-5-.81-3.53-1.51-7.07-2.21-10.63-.69-2.98-1.58-5.57-2.79-8.37-1.19-3.71-2.08-7.26-2.5-11.13-.3-3.68-.3-3.68-1.44-6.18-1.25-3.18-1.82-6.26-2.43-9.63-1.21-6.41-2.87-12.6-4.72-18.86-1-3.52-1.74-7.04-2.41-10.64-.59-3.04-1.29-6.05-2-9.06-1.08-4.62-2.06-9.25-2.96-13.91-.62-3.01-1.33-5.98-2.04-8.97-1.44-6.17-2.52-12.36-3.5-18.62-.35-2.21-.7-4.42-1.06-6.63-.15-.98-.31-1.96-.47-2.97-.35-2.4-.35-2.4-1.47-4.4-.27-2.1-.44-4.21-.62-6.32-.4-2.88-1.13-5.61-1.86-8.42-.96-4.19-1.46-8.44-2.02-12.7-.78-5.92-1.68-11.73-3.04-17.55-1.93-8.47-2.71-17.05-3.11-25.72-.23-3.75-.8-7.43-1.35-11.15-1.06-7.57-1.27-15.03-1.23-22.68.01-1.33.01-2.67.01-4 0-2.77.01-5.54.02-8.31.02-3.51.02-7.02.02-10.53 0-2.74 0-5.49.01-8.24.01-1.91.01-3.82.01-5.73.11-20.82.11-20.82 2.16-28.65.18-2.67.33-5.33.44-8 .44-8.56 1.44-16.88 3.63-25.19.69-2.8 1.12-5.17 1.37-8 1.52-15.77 1.52-15.77 4.56-18.81.15-1.03.29-2.06.44-3.13.96-6.6 3.18-12.61 5.49-18.83 1.14-3.24 2.11-6.5 3.07-9.79 1.08-3.58 2.12-6.81 4.07-10 1.58-2.65 2.39-4.46 3.24-7.32 1.72-5.3 4.14-10.09 6.76-14.99.48-.92.97-1.83 1.47-2.77 5.99-11.18 12.69-21.79 19.96-32.17.43-.61.85-1.21 1.28-1.84 1.02-1.42 2.12-2.8 3.22-4.16h2l2-5h2c.29-.6.58-1.2.88-1.81 1.12-2.19 1.12-2.19 3.12-5.19h2c.24-.56.48-1.12.72-1.7 1.57-2.82 3.5-4.78 5.78-7.05 1.2-1.2 1.2-1.2 2.41-2.42 2.09-1.83 2.09-1.83 4.09-1.83v-2c1.47-1.51 1.47-1.51 3.38-3.13.63-.53 1.25-1.07 1.9-1.63 1.72-1.24 1.72-1.24 3.72-1.24v-2c1.74-1.45 3.54-2.81 5.38-4.13 1-.72 2-1.44 3.02-2.19 2.6-1.68 2.6-1.68 4.6-1.68v-2c2.09-1.52 2.09-1.52 4.94-3.25 4.44-2.74 8.79-5.55 13.09-8.49 3.17-2.02 5.16-3.26 8.97-3.26v-2c16.2-8.37 16.2-8.37 24.28-11.02 2.39-.86 4.63-1.84 6.94-2.9 4.7-2.12 9.46-3.65 14.41-5.08.87-.26 1.73-.51 2.62-.77 7.55-2.21 15.14-4.26 22.75-6.23.74-.2 1.48-.41 2.25-.62 5.49-1.48 11.07-2.28 16.69-3.08 2.26-.33 4.52-.69 6.78-1.06 15.39-2.39 30.72-2.98 46.28-3.24.9-.02 1.79-.03 2.71-.05 25.48-.42 51.69-.32 76.75 4.62 2.73.46 5.41.68 8.17.87 5.23.38 10.34 1.15 15.5 2.06.75.13 1.49.26 2.26.4 5.35.97 5.35.97 7.61 2.1 1.22.1 2.44.21 3.69.31 4.95.5 9.58 1.76 14.36 3.1 5.82 1.61 11.68 2.78 17.61 3.88 3.23.68 6.23 1.65 9.34 2.71 2.34.34 4.67.67 7 1 6.21 1.58 6.21 1.58 9 3.06 2.13 1.12 2.13 1.12 5.19 1.38 3.6.53 6.59 1.4 10 2.6 4.46 1.52 8.98 2.88 13.49 4.25 5.22 1.6 5.22 1.6 6.32 2.71 4.69.63 7.71-1.24 11.57-3.63 1.24-.73 2.49-1.47 3.74-2.21.62-.36 1.24-.73 1.88-1.11 7.1-4.11 14.4-7.43 22.14-10.11 5.15-1.81 10.19-3.91 15.23-6 2.72-1.05 5.47-1.71 8.3-2.38 2.13-.56 4.16-1.25 6.23-1.99 5.2-1.76 10.45-2.75 15.85-3.7 1.87-.33 3.73-.66 5.59-1 .81-.15 1.63-.29 2.46-.44 2.07-.36 2.07-.36 4.01-1.43 1.67-.18 3.34-.32 5-.44 3.64-.29 7.08-.74 10.63-1.56 5.38-1.17 10.74-1.42 16.22-1.66 3.16-.14 6.19-.35 9.31-.85 5.86-.75 11.69-.73 17.59-.74 1.01 0 1.01 0 2.04-.01 13.19-.01 26.31.76 39.46 1.7.96.06 1.92.13 2.9.2 2.73.2 5.46.4 8.18.61l2.48.18c3.51.28 6.79.72 10.19 1.57 2.34.18 4.67.32 7 .44 6.78.39 13.33 1.38 20 2.56 6.32 1.09 10.79 1.15 16.8-1.18 2.19-.81 4.29-1.35 6.58-1.82 3.4-.71 6.72-1.56 10.06-2.5 8.53-2.36 17.12-3.79 25.88-5.04 2.65-.32 2.65-.32 4.68-1.46 1.52-.18 3.04-.32 4.57-.44 3.32-.3 6.5-.73 9.75-1.5 9.63-2.25 19.26-3.3 29.12-3.72 5.49-.25 10.34-1.48 15.93-1.47Zm-33.68 38.32c-.7.1-1.4.21-2.12.31-38.61 5.61-38.61 5.61-75.65 17.17-7.75 2.94-15.12.81-22.92-.92-10.16-2.15-20.32-3.73-30.62-5-1.3-.16-2.6-.33-3.95-.49-14.5-1.74-28.95-2.5-43.55-2.51h-2.35c-31.15.04-61.93 4.38-91.53 14.25-.74.24-1.49.49-2.25.74-15.8 5.18-30.95 11.8-44.69 21.29-1.42.98-1.42.98-2.87 1.97-.83.6-1.66 1.2-2.52 1.81-7.1 3.16-16.04-1.87-22.85-4.25-74.93-25.59-160.87-42.31-239.82-29.56-1.11.17-2.22.34-3.36.52-16.27 2.57-31.96 6.43-47.64 11.48-.71.23-1.43.45-2.16.69-9.1 2.92-17.39 6.9-25.84 11.31-2.88 1.45-5.76 2.89-8.68 4.25-17.12 9.04-31.71 21.12-45.32 34.75-.83.8-1.67 1.61-2.54 2.44-13.32 12.9-23.88 28.13-32.46 44.56-.5.94-1.01 1.88-1.53 2.85-22.53 43.11-31.84 93.77-32.47 142.15-.01 1.15-.03 2.3-.04 3.49-.1 8.84-.06 17.67.04 26.51l.03 2.85c.55 49.86 12.92 100.39 23.48 148.87.46 2.12.92 4.24 1.38 6.37 5.24 24.24 11.33 48.29 17.46 72.32.57 2.27 1.15 4.53 1.72 6.8 15.06 59.3 32.86 119.45 56.93 175.79.89 2.11 1.77 4.22 2.65 6.33 4.9 11.66 9.8 23.3 15.35 34.67.65 1.32.65 1.32 1.3 2.68 6.39 13.11 13.04 25.91 20.7 38.32.48.78.95 1.55 1.44 2.35 8.19 13.4 16.82 25.83 27.5 37.4 1.83 2 3.58 4.04 5.31 6.12 10.74 12.25 23.4 22.08 37.88 29.5.62.33 1.24.65 1.88.98 9.28 4.56 18.46 6.19 28.74 6.09l3.19-.03c26.37-.58 45.93-15.49 63.64-33.75 3.58-3.77 6.9-7.7 10.12-11.79 2.84-3.54 5.82-6.95 8.8-10.37 3.81-4.36 7.56-8.75 11.19-13.25 3.83-4.73 7.86-9.22 11.97-13.7 2.57-2.8 5.07-5.65 7.57-8.52 2.83-3.23 5.71-6.41 8.59-9.6 1.89-2.11 3.76-4.23 5.62-6.37 3.58-4.11 7.26-8.13 10.94-12.15 2.01-2.23 3.99-4.47 5.96-6.74 3.69-4.23 7.5-8.33 11.35-12.42.65-.69 1.3-1.39 1.97-2.1 3.07-3.27 6.15-6.51 9.34-9.65 4.29 1.36 8.34 2.98 12.44 4.81 17.38 7.51 35.63 12.21 54.62 12.92.96.13.96.13 1.94.27l1 2c-.45.56-.89 1.12-1.36 1.69-.64.81-1.28 1.61-1.95 2.43-.73.91-1.46 1.82-2.21 2.76-1.72 2.17-3.42 4.35-5.1 6.55-11.2 14.62-21.78 24.68-39.88 29.94l-2.19.64c-6.14 1.75-12.34 3.2-18.58 4.6l-2.98.67c-4.05.91-8.11 1.81-12.17 2.69-26.34 5.6-26.34 5.6-48.58 20.03-.56.53-1.13 1.06-1.71 1.6-5.6 5.78-8.4 13.42-8.79 21.4.54 10.03 4.36 16.9 11.68 23.66 31.68 26.29 78.81 31.96 118.57 28.78 18.16-1.75 36.72-5.59 53.25-13.44 1.63-.75 1.63-.75 3.28-1.52 6.49-3.12 12.72-6.54 18.85-10.29.61-.37 1.22-.73 1.84-1.11 4.39-2.75 8.34-5.93 12.3-9.26.55-.47 1.1-.93 1.67-1.41 1.36-1.13 2.71-2.27 4.06-3.41.02.85.03 1.7.04 2.58.29 24.14.61 48.28.96 72.42l.06 3.5c.73 48.58 2.52 97.49 9.38 145.62l.3 2.11c1.88 13.26 4.79 26.1 9.89 38.52.34.83.68 1.67 1.03 2.53 13.96 33.43 37.25 63.16 71.34 77.72 45.07 17.05 99.39 9.08 142.73-10.07 2.1-.96 4.19-1.94 6.27-2.93.63-.29 1.26-.57 1.91-.87 12.83-5.86 24.63-13.35 34.9-23.05 2.04-1.94 4.15-3.72 6.32-5.52 6.91-6.06 12.02-13.61 17.12-21.19.62-.91.62-.91 1.25-1.84 2.88-4.35 5.25-8.84 7.5-13.53.49-.94.97-1.88 1.46-2.85 33.87-69.31 33.1-164.95 41.79-240.53.1-.84.2-1.69.3-2.56.56-4.84 1.11-9.67 1.66-14.5.16-1.45.33-2.91.49-4.36.23-1.97.45-3.94.67-5.92.12-1.1.25-2.2.37-3.33.24-2.67.32-5.27.26-7.95 1.06.26 2.12.53 3.2.8 36.1 8.76 75.58 6.76 111.8-.8.98-.2 1.95-.4 2.95-.61 38.94-8.14 73.83-24.23 104.05-50.39.93-.78 1.85-1.56 2.81-2.36 6.77-5.88 12.14-12.23 17.19-19.64.46-.66.91-1.32 1.38-2 3.89-6.18 5.38-13.79 4.62-21-2.29-8.37-6.54-15.1-13.87-19.88-13.11-4.72-25.81-3.33-39.31-.87-1.98.34-3.96.69-5.94 1.03-2 .35-4 .7-6.01 1.05-86.69 15.04-86.69 15.04-115.87-3.33.61-2.91 1.49-5.07 3.08-7.57.42-.67.83-1.33 1.26-2.01.45-.7.89-1.39 1.35-2.11.46-.72.91-1.43 1.38-2.17 2.34-3.69 4.72-7.34 7.18-10.95 2.64-3.91 4.85-7.98 7.07-12.13 1.9-3.45 3.9-6.82 5.93-10.19 3.38-5.59 6.74-11.19 10.07-16.81.41-.68.81-1.37 1.23-2.07 2.32-3.93 4.45-7.89 6.46-11.98 1.72-3.48 3.55-6.9 5.37-10.32.89-1.69 1.77-3.37 2.66-5.06 1.53-2.9 3.05-5.8 4.59-8.69 8.53-16.15 16.48-32.44 24.05-49.05 1.06-2.32 2.14-4.63 3.23-6.93 17.1-35.87 32-73.06 44.39-110.82.85-2.58 1.73-5.16 2.61-7.73 8.65-25.41 16.42-51.05 22.36-77.23.79-3.42 1.61-6.82 2.44-10.23 5.65-23.37 10.08-46.9 13.54-70.7.16-1.03.31-2.06.46-3.13.47-3.37.89-6.74 1.29-10.12.14-1.07.14-1.07.27-2.16 1.75-14.68 2.08-29.27 2.05-44.05 0-3.79.02-7.57.05-11.35.03-14.41-.78-28.26-3.37-42.44-.12-.68-.24-1.37-.36-2.07-4.37-24.86-16.81-43.66-33.64-61.93-1.21-1.37-2.42-2.75-3.62-4.13l-1.7-1.94c-1.14-1.31-2.26-2.63-3.38-3.96-3.52-4.14-7.2-7.75-11.34-11.26-1.86-1.62-3.56-3.31-5.27-5.09-54.51-55.25-141.99-84.72-218.3-85.77-2.33-.01-4.65-.02-6.97-.02-1.26 0-2.52-.01-3.82-.01-2.65 0-5.3-.01-7.95-.01-3.98 0-7.95-.02-11.93-.04-20.9-.04-41.36 1.31-62.03 4.42Z" fill="#000102"/><path d="M925 69c.89.01 1.78.03 2.7.04 53.6.98 107.57 14.65 154.3 40.96 1.03.58 1.03.58 2.09 1.16 10.29 5.77 19.62 12.6 28.91 19.84.93.71 1.85 1.42 2.81 2.16 18.18 14.19 35.79 31.04 49.19 49.84.67.93 1.35 1.86 2.04 2.81 30.23 44.26 14.09 118.5 4.94 167.26-8.71 45.62-21.79 90.08-36.98 133.93-.23.66-.46 1.32-.69 1.99-5.09 14.69-10.44 29.23-16.33 43.61-1.03 2.53-2.04 5.07-3.04 7.61-3.71 9.41-7.58 18.66-11.94 27.79-1.21 2.56-2.42 5.12-3.62 7.69-.46.96-.46.96-.92 1.94-1.57 3.38-3.06 6.77-4.4 10.25-4.23 10.85-9.52 21.3-15.07 31.54-2.36 4.36-4.6 8.76-6.8 13.2-7.46 15.01-15.29 29.76-23.76 44.22a275.07 275.07 0 0 0-5.55 9.91c-5.54 10.26-11.67 20.15-18.25 29.76-1.39 2.12-2.56 4.2-3.63 6.49-3.06-.89-4.65-1.53-6.56-4.12-.49-3.22-.17-3.86 1.3-6.63.37-.71.74-1.42 1.13-2.15.98-1.82 1.96-3.62 2.95-5.43 28.57-53.35 22.2-113.71 15.3-171.46-4.34-36.37-2.72-70.53 2.54-106.68 8.49-51.71 8.49-51.71.34-102.53-.36-1-.73-2-1.11-3.04-6.5-17.84-13.58-35.3-22.77-51.93-1.22-2.22-2.43-4.44-3.64-6.65-3.85-7.04-7.68-14-12.26-20.59-1.5-2.2-2.76-4.51-4.06-6.82-8.75-14.85-19.32-29.03-30.62-42.03-2.39-2.77-4.69-5.59-6.98-8.44-8.29-10.13-17.4-19.44-26.61-28.72-.99-1-1.98-2.01-2.98-3.01-6.64-6.73-13.57-12.88-20.97-18.77-1.04-.87-2.07-1.76-3.1-2.64-18.49-15.89-39.54-28.74-60.9-40.36-.68-.37-1.35-.74-2.05-1.13-2.02-1.11-4.05-2.21-6.07-3.31-.61-.33-1.21-.66-1.83-1-3.6-1.92-7.15-3.38-11.05-4.56v-2c15.8-4.03 31.83-6.04 48-8 .84-.1 1.67-.21 2.53-.31 17.67-2.11 35.7-1.97 53.47-1.69ZM569.125 383.688c6.81 5.45 11.09 12.29 15.06 19.94.32.6.64 1.2.98 1.82 5.66 11.39 7.64 24.71 9.84 37.12.18 1.05.18 1.05.38 2.13 13.93 77.93 10.85 148.36-22.64 220.99-11.16 24.35-20.29 49.87-27.64 75.62-1.1 3.69-1.1 3.69-2.1 4.69-29.1 2.34-58.87-10.77-80.78-29.35-1.7-1.52-3.37-3.06-5.03-4.62-1.82-1.68-3.67-3.2-5.63-4.72-9.75-8.32-17.05-20.39-23.56-31.31-.54-.88-1.07-1.76-1.61-2.67-8.51-15.48-13.12-33.91-15.39-51.33-.19-1.26-.37-2.53-.55-3.84-1.91-15.75-.12-31.42 1.97-47.04 5.86-43.7 5.46-88.05 3.29-132l-.14-2.84-.27-5.24c-.2-4-.36-7.99-.43-11.99-.02-.73-.03-1.45-.05-2.19.18-1.86.18-1.86 1.76-4.13 2.78-1.97 5.55-3.89 8.42-5.73.58-.38 1.17-.76 1.78-1.16 25.99-16.67 55.75-27.24 86.22-31.84 1.17-.19 2.34-.38 3.55-.57 17.8-2.2 37.5-.1 52.57 10.26Z" fill="#34668E"/><path d="M997.5 367.875c.84.08 1.67.16 2.53.24 5.71.63 5.71.63 7.97 2.88.87 7.24-.34 14.87-1.12 22.07-.13 1.18-.26 2.36-.39 3.58-1.14 10.16-2.62 20.26-4.15 30.37-2.41 15.96-4.67 31.83-5.34 47.98-.04.95-.09 1.89-.13 2.87-1.22 30.26 3.41 60.83 6.82 90.85 4.39 38.94 3.9 77.74-11.69 114.28-4.58-4.01-6.75-8.09-9.19-13.62-5.81-12.71-12.1-25.19-19.46-37.08-1.53-2.6-2.84-5.27-4.16-7.98-2.3-4.69-4.84-9.13-7.57-13.56-4.23-6.94-7.89-14.06-11.45-21.36-1.84-3.75-3.72-7.48-5.6-11.21-58.87-117.1-58.87-117.1-43.76-170.06 5.08-15.22 14.24-25.07 28.52-32.3 23.99-10.53 52.61-10.39 78.17-7.95ZM598.938 791.375c9.25 4.08 15.15 12.78 19.03 21.84 1.27 4.64 1.61 8.93 1.66 13.72l.03 2.44c-.13 5.35-1.22 8.35-4.66 12.62-.64.85-1.28 1.7-1.94 2.58-16.68 20.66-36.84 37.41-62.37 45.68-1.06.35-1.06.35-2.15.7-14.45 4.45-28.89 5.62-43.91 5.54h-2.62c-21.73-.07-43.4-2.84-63.26-12.24-.91-.43-1.82-.86-2.76-1.3-.99-.47-.99-.47-1.99-.96l1-3c2.72-1.09 5.32-1.95 8.13-2.74.87-.26 1.74-.52 2.64-.78 8.11-2.3 16.32-4.11 24.55-5.91 35.49-7.81 61.6-18.23 84.68-47.57 28.37-35.75 28.37-35.75 43.94-30.62ZM1020 786c1.58 1.18 3.17 2.36 4.75 3.54 37.3 24.18 92.53 15.12 133.79 8.09 6.24-1.05 12.13-1.93 18.46-1.63-17.16 13.77-17.16 13.77-25.66 18.63-2.42 1.42-4.72 2.96-7.03 4.56-3.62 2.45-7.24 4.18-11.31 5.81-1.16.61-2.33 1.21-3.53 1.84-39.62 19.92-102.57 27.5-144.93 14.26-2.58-1.12-3.96-1.78-5.54-4.1-1.77-12.01.64-27.14 7.54-37.25 3.88-4.81 7.72-7.59 13.46-9.75 1.82-.68 1.82-.68 3.67-1.38 1.34-.48 2.68-.96 4.02-1.43.96-.35.96-.35 1.94-.7 3.83-1.29 6.52-1.83 10.37-.49Z" fill="#34668E"/><path d="M567.875 401.813c3.94 4.06 5.78 7.55 6.94 13-.3 6.13-5.59 10.27-9.82 14.19-8.95 7.13-17.83 8.02-29 7-10.8-2.26-19.72-10.5-25.97-19.28-2.38-4-2.63-8.19-2.03-12.72 2.43-4.96 4.88-7.07 10-9 15.67-4.95 36.04-1.92 49.88 6.81ZM968 386c3 2.49 4.84 4.77 7 8 0 7.43-3.91 12.69-8.86 17.99-7.92 7.39-15.34 9.9-26.21 9.58-9.5-1.38-17.67-6.15-23.79-13.58-1.36-2.37-1.87-4.27-2.14-6.99 2.63-6.69 6.54-9.18 13-12 12.25-4.95 28.34-8.18 41-3Z" fill="#FAFDFF"/></svg>